<?xml version="1.0" encoding="UTF-8" standalone="no"?>
<!DOCTYPE svg PUBLIC "-//W3C//DTD SVG 1.1//EN"
 "http://www.w3.org/Graphics/SVG/1.1/DTD/svg11.dtd">
<!-- Generated by graphviz version 11.0.0 (0)
 -->
<!-- Title: G Pages: 1 -->
<svg width="1463pt" height="476pt"
 viewBox="0.00 0.00 1463.36 476.00" xmlns="http://www.w3.org/2000/svg" xmlns:xlink="http://www.w3.org/1999/xlink">
<g id="graph0" class="graph" transform="scale(1 1) rotate(0) translate(4 472)">
<title>G</title>
<polygon fill="white" stroke="none" points="-4,4 -4,-472 1459.36,-472 1459.36,4 -4,4"/>
<!-- fontforge -->
<g id="node1" class="node">
<title>fontforge</title>
<ellipse fill="none" stroke="black" cx="407.49" cy="-450" rx="45.21" ry="18"/>
<text text-anchor="middle" x="407.49" y="-444.95" font-family="Times,serif" font-size="14.00">fontforge</text>
</g>
<!-- pango -->
<g id="node2" class="node">
<title>pango</title>
<ellipse fill="none" stroke="black" cx="999.49" cy="-378" rx="33.44" ry="18"/>
<text text-anchor="middle" x="999.49" y="-372.95" font-family="Times,serif" font-size="14.00">pango</text>
</g>
<!-- fontforge&#45;&gt;pango -->
<g id="edge1" class="edge">
<title>fontforge&#45;&gt;pango</title>
<path fill="none" stroke="black" d="M450.54,-443.91C559.51,-431.02 845.42,-397.22 955.45,-384.21"/>
<polygon fill="black" stroke="black" points="955.74,-387.7 965.26,-383.05 954.92,-380.75 955.74,-387.7"/>
</g>
<!-- libuninameslist -->
<g id="node3" class="node">
<title>libuninameslist</title>
<ellipse fill="none" stroke="black" cx="194.49" cy="-378" rx="67.73" ry="18"/>
<text text-anchor="middle" x="194.49" y="-372.95" font-family="Times,serif" font-size="14.00">libuninameslist</text>
</g>
<!-- fontforge&#45;&gt;libuninameslist -->
<g id="edge2" class="edge">
<title>fontforge&#45;&gt;libuninameslist</title>
<path fill="none" stroke="black" d="M373.26,-437.75C339.08,-426.52 286.09,-409.1 246.66,-396.15"/>
<polygon fill="black" stroke="black" points="247.96,-392.89 237.37,-393.09 245.77,-399.54 247.96,-392.89"/>
</g>
<!-- libspiro -->
<g id="node4" class="node">
<title>libspiro</title>
<ellipse fill="none" stroke="black" cx="319.49" cy="-378" rx="39.07" ry="18"/>
<text text-anchor="middle" x="319.49" y="-372.95" font-family="Times,serif" font-size="14.00">libspiro</text>
</g>
<!-- fontforge&#45;&gt;libspiro -->
<g id="edge3" class="edge">
<title>fontforge&#45;&gt;libspiro</title>
<path fill="none" stroke="black" d="M387.96,-433.46C375.94,-423.91 360.36,-411.51 347.1,-400.96"/>
<polygon fill="black" stroke="black" points="349.55,-398.44 339.54,-394.95 345.19,-403.92 349.55,-398.44"/>
</g>
<!-- libgif -->
<g id="node5" class="node">
<title>libgif</title>
<ellipse fill="none" stroke="black" cx="407.49" cy="-378" rx="30.88" ry="18"/>
<text text-anchor="middle" x="407.49" y="-372.95" font-family="Times,serif" font-size="14.00">libgif</text>
</g>
<!-- fontforge&#45;&gt;libgif -->
<g id="edge4" class="edge">
<title>fontforge&#45;&gt;libgif</title>
<path fill="none" stroke="black" d="M407.49,-431.7C407.49,-424.41 407.49,-415.73 407.49,-407.54"/>
<polygon fill="black" stroke="black" points="410.99,-407.62 407.49,-397.62 403.99,-407.62 410.99,-407.62"/>
</g>
<!-- libjpeg&#45;turbo -->
<g id="node6" class="node">
<title>libjpeg&#45;turbo</title>
<ellipse fill="none" stroke="black" cx="515.49" cy="-378" rx="59.03" ry="18"/>
<text text-anchor="middle" x="515.49" y="-372.95" font-family="Times,serif" font-size="14.00">libjpeg&#45;turbo</text>
</g>
<!-- fontforge&#45;&gt;libjpeg&#45;turbo -->
<g id="edge5" class="edge">
<title>fontforge&#45;&gt;libjpeg&#45;turbo</title>
<path fill="none" stroke="black" d="M430.39,-434.15C445.3,-424.49 465,-411.72 481.69,-400.9"/>
<polygon fill="black" stroke="black" points="483.36,-404 489.84,-395.62 479.55,-398.12 483.36,-404"/>
</g>
<!-- libtiff -->
<g id="node7" class="node">
<title>libtiff</title>
<ellipse fill="none" stroke="black" cx="98.49" cy="-234" rx="31.9" ry="18"/>
<text text-anchor="middle" x="98.49" y="-228.95" font-family="Times,serif" font-size="14.00">libtiff</text>
</g>
<!-- fontforge&#45;&gt;libtiff -->
<g id="edge6" class="edge">
<title>fontforge&#45;&gt;libtiff</title>
<path fill="none" stroke="black" d="M362.48,-447.11C289.51,-443.06 150.19,-430.85 117.49,-396 84.09,-360.42 87.21,-299.17 92.71,-263.35"/>
<polygon fill="black" stroke="black" points="96.12,-264.2 94.36,-253.75 89.22,-263.01 96.12,-264.2"/>
</g>
<!-- python3 -->
<g id="node8" class="node">
<title>python3</title>
<ellipse fill="none" stroke="black" cx="592.49" cy="-234" rx="41.12" ry="18"/>
<text text-anchor="middle" x="592.49" y="-228.95" font-family="Times,serif" font-size="14.00">python3</text>
</g>
<!-- fontforge&#45;&gt;python3 -->
<g id="edge7" class="edge">
<title>fontforge&#45;&gt;python3</title>
<path fill="none" stroke="black" d="M452.97,-448.96C494.07,-446.24 552.69,-435.11 583.49,-396 613.36,-358.06 607.06,-298.15 599.77,-263.1"/>
<polygon fill="black" stroke="black" points="603.27,-262.7 597.65,-253.71 596.44,-264.24 603.27,-262.7"/>
</g>
<!-- cairo -->
<g id="node19" class="node">
<title>cairo</title>
<ellipse fill="none" stroke="black" cx="958.49" cy="-306" rx="29.34" ry="18"/>
<text text-anchor="middle" x="958.49" y="-300.95" font-family="Times,serif" font-size="14.00">cairo</text>
</g>
<!-- pango&#45;&gt;cairo -->
<g id="edge20" class="edge">
<title>pango&#45;&gt;cairo</title>
<path fill="none" stroke="black" d="M989.77,-360.41C985.02,-352.3 979.19,-342.35 973.86,-333.25"/>
<polygon fill="black" stroke="black" points="976.97,-331.64 968.9,-324.78 970.93,-335.17 976.97,-331.64"/>
</g>
<!-- fribidi -->
<g id="node20" class="node">
<title>fribidi</title>
<ellipse fill="none" stroke="black" cx="1039.49" cy="-306" rx="33.95" ry="18"/>
<text text-anchor="middle" x="1039.49" y="-300.95" font-family="Times,serif" font-size="14.00">fribidi</text>
</g>
<!-- pango&#45;&gt;fribidi -->
<g id="edge21" class="edge">
<title>pango&#45;&gt;fribidi</title>
<path fill="none" stroke="black" d="M1008.96,-360.41C1013.6,-352.3 1019.28,-342.35 1024.49,-333.25"/>
<polygon fill="black" stroke="black" points="1027.4,-335.2 1029.32,-324.78 1021.32,-331.73 1027.4,-335.2"/>
</g>
<!-- libharfbuzz -->
<g id="node21" class="node">
<title>libharfbuzz</title>
<ellipse fill="none" stroke="black" cx="1220.49" cy="-306" rx="52.89" ry="18"/>
<text text-anchor="middle" x="1220.49" y="-300.95" font-family="Times,serif" font-size="14.00">libharfbuzz</text>
</g>
<!-- pango&#45;&gt;libharfbuzz -->
<g id="edge22" class="edge">
<title>pango&#45;&gt;libharfbuzz</title>
<path fill="none" stroke="black" d="M1027.92,-367.99C1064.36,-356.45 1128.06,-336.28 1172.16,-322.31"/>
<polygon fill="black" stroke="black" points="1173.01,-325.71 1181.48,-319.35 1170.89,-319.04 1173.01,-325.71"/>
</g>
<!-- liblzma -->
<g id="node15" class="node">
<title>liblzma</title>
<ellipse fill="none" stroke="black" cx="165.49" cy="-162" rx="39.07" ry="18"/>
<text text-anchor="middle" x="165.49" y="-156.95" font-family="Times,serif" font-size="14.00">liblzma</text>
</g>
<!-- libtiff&#45;&gt;liblzma -->
<g id="edge17" class="edge">
<title>libtiff&#45;&gt;liblzma</title>
<path fill="none" stroke="black" d="M113.02,-217.81C121.68,-208.76 132.86,-197.08 142.68,-186.83"/>
<polygon fill="black" stroke="black" points="145.08,-189.38 149.47,-179.74 140.02,-184.54 145.08,-189.38"/>
</g>
<!-- libz -->
<g id="node17" class="node">
<title>libz</title>
<ellipse fill="none" stroke="black" cx="891.49" cy="-18" rx="27" ry="18"/>
<text text-anchor="middle" x="891.49" y="-12.95" font-family="Times,serif" font-size="14.00">libz</text>
</g>
<!-- libtiff&#45;&gt;libz -->
<g id="edge18" class="edge">
<title>libtiff&#45;&gt;libz</title>
<path fill="none" stroke="black" d="M96.87,-215.53C96.05,-195.29 98.14,-162.4 117.49,-144 225.07,-41.69 711.31,-22.98 852.77,-19.68"/>
<polygon fill="black" stroke="black" points="852.81,-23.18 862.73,-19.46 852.65,-16.18 852.81,-23.18"/>
</g>
<!-- libzstd -->
<g id="node18" class="node">
<title>libzstd</title>
<ellipse fill="none" stroke="black" cx="35.49" cy="-162" rx="35.49" ry="18"/>
<text text-anchor="middle" x="35.49" y="-156.95" font-family="Times,serif" font-size="14.00">libzstd</text>
</g>
<!-- libtiff&#45;&gt;libzstd -->
<g id="edge19" class="edge">
<title>libtiff&#45;&gt;libzstd</title>
<path fill="none" stroke="black" d="M84.5,-217.46C76.43,-208.49 66.1,-197.02 57.01,-186.92"/>
<polygon fill="black" stroke="black" points="59.73,-184.71 50.44,-179.62 54.53,-189.39 59.73,-184.71"/>
</g>
<!-- ncurses -->
<g id="node9" class="node">
<title>ncurses</title>
<ellipse fill="none" stroke="black" cx="261.49" cy="-162" rx="38.56" ry="18"/>
<text text-anchor="middle" x="261.49" y="-156.95" font-family="Times,serif" font-size="14.00">ncurses</text>
</g>
<!-- python3&#45;&gt;ncurses -->
<g id="edge8" class="edge">
<title>python3&#45;&gt;ncurses</title>
<path fill="none" stroke="black" d="M553.61,-227.67C498.66,-219.71 395.41,-203.11 309.49,-180 306.89,-179.3 304.24,-178.53 301.58,-177.71"/>
<polygon fill="black" stroke="black" points="302.74,-174.41 292.14,-174.63 300.56,-181.06 302.74,-174.41"/>
</g>
<!-- libopenssl -->
<g id="node10" class="node">
<title>libopenssl</title>
<ellipse fill="none" stroke="black" cx="366.49" cy="-162" rx="48.28" ry="18"/>
<text text-anchor="middle" x="366.49" y="-156.95" font-family="Times,serif" font-size="14.00">libopenssl</text>
</g>
<!-- python3&#45;&gt;libopenssl -->
<g id="edge9" class="edge">
<title>python3&#45;&gt;libopenssl</title>
<path fill="none" stroke="black" d="M559.62,-222.82C521.22,-210.93 457.37,-191.15 413.68,-177.62"/>
<polygon fill="black" stroke="black" points="414.79,-174.3 404.2,-174.68 412.72,-180.98 414.79,-174.3"/>
</g>
<!-- libsqlite3 -->
<g id="node11" class="node">
<title>libsqlite3</title>
<ellipse fill="none" stroke="black" cx="477.49" cy="-162" rx="45.21" ry="18"/>
<text text-anchor="middle" x="477.49" y="-156.95" font-family="Times,serif" font-size="14.00">libsqlite3</text>
</g>
<!-- python3&#45;&gt;libsqlite3 -->
<g id="edge10" class="edge">
<title>python3&#45;&gt;libsqlite3</title>
<path fill="none" stroke="black" d="M569.21,-218.83C552.52,-208.68 529.78,-194.83 511.12,-183.47"/>
<polygon fill="black" stroke="black" points="513.17,-180.62 502.81,-178.41 509.53,-186.6 513.17,-180.62"/>
</g>
<!-- libexpat -->
<g id="node12" class="node">
<title>libexpat</title>
<ellipse fill="none" stroke="black" cx="797.49" cy="-162" rx="40.6" ry="18"/>
<text text-anchor="middle" x="797.49" y="-156.95" font-family="Times,serif" font-size="14.00">libexpat</text>
</g>
<!-- python3&#45;&gt;libexpat -->
<g id="edge11" class="edge">
<title>python3&#45;&gt;libexpat</title>
<path fill="none" stroke="black" d="M624.07,-222.22C659.2,-210.22 716.15,-190.77 755.13,-177.46"/>
<polygon fill="black" stroke="black" points="756.1,-180.83 764.44,-174.29 753.84,-174.2 756.1,-180.83"/>
</g>
<!-- libgdbm -->
<g id="node13" class="node">
<title>libgdbm</title>
<ellipse fill="none" stroke="black" cx="582.49" cy="-162" rx="42.14" ry="18"/>
<text text-anchor="middle" x="582.49" y="-156.95" font-family="Times,serif" font-size="14.00">libgdbm</text>
</g>
<!-- python3&#45;&gt;libgdbm -->
<g id="edge12" class="edge">
<title>python3&#45;&gt;libgdbm</title>
<path fill="none" stroke="black" d="M590.01,-215.7C588.96,-208.32 587.7,-199.52 586.52,-191.25"/>
<polygon fill="black" stroke="black" points="590.02,-191.01 585.14,-181.6 583.09,-192 590.02,-191.01"/>
</g>
<!-- libffi -->
<g id="node14" class="node">
<title>libffi</title>
<ellipse fill="none" stroke="black" cx="1140.49" cy="-162" rx="29.34" ry="18"/>
<text text-anchor="middle" x="1140.49" y="-156.95" font-family="Times,serif" font-size="14.00">libffi</text>
</g>
<!-- python3&#45;&gt;libffi -->
<g id="edge13" class="edge">
<title>python3&#45;&gt;libffi</title>
<path fill="none" stroke="black" d="M631.97,-228.58C663.29,-225.09 708.18,-220.15 747.49,-216 905.2,-199.35 949.26,-220.9 1102.49,-180 1104.23,-179.54 1105.99,-179 1107.75,-178.41"/>
<polygon fill="black" stroke="black" points="1108.94,-181.71 1117,-174.84 1106.41,-175.18 1108.94,-181.71"/>
</g>
<!-- python3&#45;&gt;liblzma -->
<g id="edge14" class="edge">
<title>python3&#45;&gt;liblzma</title>
<path fill="none" stroke="black" d="M551.87,-230.02C481.95,-224.3 334.66,-209.61 213.49,-180 210.88,-179.36 208.21,-178.64 205.54,-177.85"/>
<polygon fill="black" stroke="black" points="206.68,-174.54 196.09,-174.84 204.55,-181.21 206.68,-174.54"/>
</g>
<!-- libbz2 -->
<g id="node16" class="node">
<title>libbz2</title>
<ellipse fill="none" stroke="black" cx="805.49" cy="-90" rx="33.95" ry="18"/>
<text text-anchor="middle" x="805.49" y="-84.95" font-family="Times,serif" font-size="14.00">libbz2</text>
</g>
<!-- python3&#45;&gt;libbz2 -->
<g id="edge15" class="edge">
<title>python3&#45;&gt;libbz2</title>
<path fill="none" stroke="black" d="M613.31,-218.27C628.18,-207.7 648.64,-193.08 666.49,-180 687.99,-164.24 692.26,-158.74 714.49,-144 733.21,-131.59 754.93,-118.88 772.45,-109.02"/>
<polygon fill="black" stroke="black" points="773.87,-112.23 780.9,-104.3 770.46,-106.12 773.87,-112.23"/>
</g>
<!-- python3&#45;&gt;libz -->
<g id="edge16" class="edge">
<title>python3&#45;&gt;libz</title>
<path fill="none" stroke="black" d="M605.3,-216.68C622.81,-194.54 653.53,-156.33 666.49,-144 705.13,-107.24 716.11,-98.35 762.49,-72 792.88,-54.73 830.02,-40.08 856.63,-30.59"/>
<polygon fill="black" stroke="black" points="857.63,-33.95 865.91,-27.35 855.32,-27.34 857.63,-33.95"/>
</g>
<!-- glib -->
<g id="node23" class="node">
<title>glib</title>
<ellipse fill="none" stroke="black" cx="1220.49" cy="-234" rx="27" ry="18"/>
<text text-anchor="middle" x="1220.49" y="-228.95" font-family="Times,serif" font-size="14.00">glib</text>
</g>
<!-- cairo&#45;&gt;glib -->
<g id="edge36" class="edge">
<title>cairo&#45;&gt;glib</title>
<path fill="none" stroke="black" d="M981.11,-294.04C986.11,-291.86 991.42,-289.72 996.49,-288 1060.77,-266.23 1138.34,-250.02 1183.28,-241.57"/>
<polygon fill="black" stroke="black" points="1183.83,-245.03 1193.02,-239.77 1182.55,-238.15 1183.83,-245.03"/>
</g>
<!-- libpng -->
<g id="node27" class="node">
<title>libpng</title>
<ellipse fill="none" stroke="black" cx="891.49" cy="-90" rx="34.46" ry="18"/>
<text text-anchor="middle" x="891.49" y="-84.95" font-family="Times,serif" font-size="14.00">libpng</text>
</g>
<!-- cairo&#45;&gt;libpng -->
<g id="edge37" class="edge">
<title>cairo&#45;&gt;libpng</title>
<path fill="none" stroke="black" d="M929.7,-302.08C877.32,-296.11 769.78,-280.59 747.49,-252 717.97,-214.15 719.82,-183.23 747.49,-144 774.95,-105.05 803.88,-124.76 848.49,-108 850.29,-107.32 852.14,-106.62 854.01,-105.9"/>
<polygon fill="black" stroke="black" points="855.24,-109.18 863.29,-102.3 852.7,-102.66 855.24,-109.18"/>
</g>
<!-- libfontconfig -->
<g id="node31" class="node">
<title>libfontconfig</title>
<ellipse fill="none" stroke="black" cx="1013.49" cy="-234" rx="59.03" ry="18"/>
<text text-anchor="middle" x="1013.49" y="-228.95" font-family="Times,serif" font-size="14.00">libfontconfig</text>
</g>
<!-- cairo&#45;&gt;libfontconfig -->
<g id="edge38" class="edge">
<title>cairo&#45;&gt;libfontconfig</title>
<path fill="none" stroke="black" d="M970.69,-289.46C977.31,-281.04 985.66,-270.41 993.23,-260.78"/>
<polygon fill="black" stroke="black" points="995.8,-263.18 999.22,-253.15 990.29,-258.85 995.8,-263.18"/>
</g>
<!-- libxml2 -->
<g id="node32" class="node">
<title>libxml2</title>
<ellipse fill="none" stroke="black" cx="1053.49" cy="-162" rx="40.09" ry="18"/>
<text text-anchor="middle" x="1053.49" y="-156.95" font-family="Times,serif" font-size="14.00">libxml2</text>
</g>
<!-- cairo&#45;&gt;libxml2 -->
<g id="edge39" class="edge">
<title>cairo&#45;&gt;libxml2</title>
<path fill="none" stroke="black" d="M981.76,-294.5C986.62,-292.33 991.71,-290.08 996.49,-288 1034.1,-271.62 1058.83,-286.2 1081.49,-252 1094.22,-232.77 1084.13,-207.39 1072.66,-188.66"/>
<polygon fill="black" stroke="black" points="1075.73,-186.96 1067.3,-180.54 1069.89,-190.81 1075.73,-186.96"/>
</g>
<!-- libpixman -->
<g id="node33" class="node">
<title>libpixman</title>
<ellipse fill="none" stroke="black" cx="805.49" cy="-234" rx="48.79" ry="18"/>
<text text-anchor="middle" x="805.49" y="-228.95" font-family="Times,serif" font-size="14.00">libpixman</text>
</g>
<!-- cairo&#45;&gt;libpixman -->
<g id="edge40" class="edge">
<title>cairo&#45;&gt;libpixman</title>
<path fill="none" stroke="black" d="M935.58,-294.52C911.82,-283.65 874.2,-266.44 845.52,-253.31"/>
<polygon fill="black" stroke="black" points="847.32,-250.29 836.77,-249.31 844.41,-256.66 847.32,-250.29"/>
</g>
<!-- liblzo -->
<g id="node34" class="node">
<title>liblzo</title>
<ellipse fill="none" stroke="black" cx="904.49" cy="-234" rx="31.9" ry="18"/>
<text text-anchor="middle" x="904.49" y="-228.95" font-family="Times,serif" font-size="14.00">liblzo</text>
</g>
<!-- cairo&#45;&gt;liblzo -->
<g id="edge41" class="edge">
<title>cairo&#45;&gt;liblzo</title>
<path fill="none" stroke="black" d="M946.5,-289.46C939.81,-280.8 931.32,-269.79 923.73,-259.95"/>
<polygon fill="black" stroke="black" points="926.61,-257.96 917.74,-252.18 921.07,-262.23 926.61,-257.96"/>
</g>
<!-- icu4c -->
<g id="node22" class="node">
<title>icu4c</title>
<ellipse fill="none" stroke="black" cx="1424.49" cy="-234" rx="30.88" ry="18"/>
<text text-anchor="middle" x="1424.49" y="-228.95" font-family="Times,serif" font-size="14.00">icu4c</text>
</g>
<!-- libharfbuzz&#45;&gt;icu4c -->
<g id="edge23" class="edge">
<title>libharfbuzz&#45;&gt;icu4c</title>
<path fill="none" stroke="black" d="M1259.59,-293.44C1293.03,-283.3 1342.3,-267.75 1384.49,-252 1386.28,-251.33 1388.12,-250.62 1389.97,-249.9"/>
<polygon fill="black" stroke="black" points="1391.17,-253.19 1399.11,-246.17 1388.53,-246.7 1391.17,-253.19"/>
</g>
<!-- libharfbuzz&#45;&gt;glib -->
<g id="edge24" class="edge">
<title>libharfbuzz&#45;&gt;glib</title>
<path fill="none" stroke="black" d="M1220.49,-287.7C1220.49,-280.41 1220.49,-271.73 1220.49,-263.54"/>
<polygon fill="black" stroke="black" points="1223.99,-263.62 1220.49,-253.62 1216.99,-263.62 1223.99,-263.62"/>
</g>
<!-- libfreetype -->
<g id="node24" class="node">
<title>libfreetype</title>
<ellipse fill="none" stroke="black" cx="906.49" cy="-162" rx="50.84" ry="18"/>
<text text-anchor="middle" x="906.49" y="-156.95" font-family="Times,serif" font-size="14.00">libfreetype</text>
</g>
<!-- libharfbuzz&#45;&gt;libfreetype -->
<g id="edge25" class="edge">
<title>libharfbuzz&#45;&gt;libfreetype</title>
<path fill="none" stroke="black" d="M1199.87,-289.2C1173.61,-269.71 1126.25,-236.63 1081.49,-216 1042.2,-197.9 995.16,-184.05 959.75,-175.06"/>
<polygon fill="black" stroke="black" points="960.7,-171.69 950.15,-172.67 959.01,-178.48 960.7,-171.69"/>
</g>
<!-- libgraphite2 -->
<g id="node25" class="node">
<title>libgraphite2</title>
<ellipse fill="none" stroke="black" cx="1320.49" cy="-234" rx="55.45" ry="18"/>
<text text-anchor="middle" x="1320.49" y="-228.95" font-family="Times,serif" font-size="14.00">libgraphite2</text>
</g>
<!-- libharfbuzz&#45;&gt;libgraphite2 -->
<g id="edge26" class="edge">
<title>libharfbuzz&#45;&gt;libgraphite2</title>
<path fill="none" stroke="black" d="M1242.68,-289.46C1256.18,-280.02 1273.64,-267.79 1288.6,-257.32"/>
<polygon fill="black" stroke="black" points="1290.58,-260.2 1296.77,-251.6 1286.57,-254.47 1290.58,-260.2"/>
</g>
<!-- glib&#45;&gt;libffi -->
<g id="edge31" class="edge">
<title>glib&#45;&gt;libffi</title>
<path fill="none" stroke="black" d="M1201.28,-220.81C1188.98,-211.32 1173.24,-197.88 1160.76,-186.35"/>
<polygon fill="black" stroke="black" points="1163.49,-184.11 1153.83,-179.78 1158.68,-189.2 1163.49,-184.11"/>
</g>
<!-- glib&#45;&gt;libffi -->
<g id="edge52" class="edge">
<title>glib&#45;&gt;libffi</title>
<path fill="none" stroke="black" d="M1208.45,-217.46C1197.99,-207.25 1182.76,-193.8 1169.29,-182.82"/>
<polygon fill="black" stroke="black" points="1171.51,-180.12 1161.51,-176.63 1167.15,-185.6 1171.51,-180.12"/>
</g>
<!-- glib&#45;&gt;libz -->
<g id="edge32" class="edge">
<title>glib&#45;&gt;libz</title>
<path fill="none" stroke="black" d="M1229.9,-217.14C1238.04,-207.44 1248.54,-194.19 1253.49,-180 1270.58,-130.89 1251.79,-100.79 1208.49,-72 1162.87,-41.68 1003.81,-27.1 929.75,-21.65"/>
<polygon fill="black" stroke="black" points="930.35,-18.18 920.13,-20.96 929.85,-25.17 930.35,-18.18"/>
</g>
<!-- glib&#45;&gt;libz -->
<g id="edge53" class="edge">
<title>glib&#45;&gt;libz</title>
<path fill="none" stroke="black" d="M1240.34,-221.82C1252.27,-211.97 1265.69,-196.63 1271.49,-180 1288.58,-130.89 1269.79,-100.79 1226.49,-72 1178.85,-40.33 1007.46,-25.83 929.88,-20.98"/>
<polygon fill="black" stroke="black" points="930.41,-17.5 920.22,-20.4 929.99,-24.49 930.41,-17.5"/>
</g>
<!-- libpcre2 -->
<g id="node28" class="node">
<title>libpcre2</title>
<ellipse fill="none" stroke="black" cx="1368.49" cy="-162" rx="41.12" ry="18"/>
<text text-anchor="middle" x="1368.49" y="-156.95" font-family="Times,serif" font-size="14.00">libpcre2</text>
</g>
<!-- glib&#45;&gt;libpcre2 -->
<g id="edge33" class="edge">
<title>glib&#45;&gt;libpcre2</title>
<path fill="none" stroke="black" d="M1240.07,-221.28C1262.45,-209.83 1299.35,-192.28 1327.93,-179.43"/>
<polygon fill="black" stroke="black" points="1329.34,-182.63 1337.05,-175.37 1326.49,-176.24 1329.34,-182.63"/>
</g>
<!-- glib&#45;&gt;libpcre2 -->
<g id="edge54" class="edge">
<title>glib&#45;&gt;libpcre2</title>
<path fill="none" stroke="black" d="M1243.57,-224.28C1267.96,-213.78 1306.34,-195.85 1334.21,-182.09"/>
<polygon fill="black" stroke="black" points="1335.58,-185.32 1342.97,-177.72 1332.46,-179.05 1335.58,-185.32"/>
</g>
<!-- libintl -->
<g id="node29" class="node">
<title>libintl</title>
<ellipse fill="none" stroke="black" cx="1220.49" cy="-162" rx="32.93" ry="18"/>
<text text-anchor="middle" x="1220.49" y="-156.95" font-family="Times,serif" font-size="14.00">libintl</text>
</g>
<!-- glib&#45;&gt;libintl -->
<g id="edge34" class="edge">
<title>glib&#45;&gt;libintl</title>
<path fill="none" stroke="black" d="M1214.61,-216.05C1213.81,-208.57 1213.56,-199.58 1213.85,-191.14"/>
<polygon fill="black" stroke="black" points="1217.33,-191.51 1214.52,-181.3 1210.35,-191.04 1217.33,-191.51"/>
</g>
<!-- glib&#45;&gt;libintl -->
<g id="edge55" class="edge">
<title>glib&#45;&gt;libintl</title>
<path fill="none" stroke="black" d="M1226.36,-216.05C1227.16,-208.57 1227.41,-199.58 1227.12,-191.14"/>
<polygon fill="black" stroke="black" points="1230.62,-191.04 1226.45,-181.3 1223.64,-191.51 1230.62,-191.04"/>
</g>
<!-- libfreetype&#45;&gt;libbz2 -->
<g id="edge27" class="edge">
<title>libfreetype&#45;&gt;libbz2</title>
<path fill="none" stroke="black" d="M879.7,-146.33C864.52,-136.66 845.77,-123.82 830.84,-112.95"/>
<polygon fill="black" stroke="black" points="832.99,-110.18 822.87,-107.04 828.82,-115.81 832.99,-110.18"/>
</g>
<!-- libfreetype&#45;&gt;libbz2 -->
<g id="edge48" class="edge">
<title>libfreetype&#45;&gt;libbz2</title>
<path fill="none" stroke="black" d="M888.86,-144.76C874.84,-134.23 855.08,-120.48 838.24,-109.52"/>
<polygon fill="black" stroke="black" points="840.31,-106.69 830,-104.25 836.54,-112.59 840.31,-106.69"/>
</g>
<!-- libbrotli -->
<g id="node26" class="node">
<title>libbrotli</title>
<ellipse fill="none" stroke="black" cx="984.49" cy="-90" rx="40.6" ry="18"/>
<text text-anchor="middle" x="984.49" y="-84.95" font-family="Times,serif" font-size="14.00">libbrotli</text>
</g>
<!-- libfreetype&#45;&gt;libbrotli -->
<g id="edge28" class="edge">
<title>libfreetype&#45;&gt;libbrotli</title>
<path fill="none" stroke="black" d="M919.13,-144.41C928.68,-134.91 941.93,-122.88 954.07,-112.65"/>
<polygon fill="black" stroke="black" points="955.99,-115.6 961.48,-106.53 951.54,-110.2 955.99,-115.6"/>
</g>
<!-- libfreetype&#45;&gt;libbrotli -->
<g id="edge49" class="edge">
<title>libfreetype&#45;&gt;libbrotli</title>
<path fill="none" stroke="black" d="M929.09,-145.81C940.23,-136.8 953.43,-125.18 964.23,-114.95"/>
<polygon fill="black" stroke="black" points="966.47,-117.66 971.21,-108.19 961.6,-112.64 966.47,-117.66"/>
</g>
<!-- libfreetype&#45;&gt;libpng -->
<g id="edge29" class="edge">
<title>libfreetype&#45;&gt;libpng</title>
<path fill="none" stroke="black" d="M896.98,-144.05C894.61,-136.68 892.46,-127.84 890.95,-119.51"/>
<polygon fill="black" stroke="black" points="894.43,-119.15 889.5,-109.77 887.51,-120.18 894.43,-119.15"/>
</g>
<!-- libfreetype&#45;&gt;libpng -->
<g id="edge50" class="edge">
<title>libfreetype&#45;&gt;libpng</title>
<path fill="none" stroke="black" d="M908.69,-143.7C907.85,-136.13 906.14,-127.06 904.01,-118.59"/>
<polygon fill="black" stroke="black" points="907.41,-117.74 901.31,-109.08 900.68,-119.65 907.41,-117.74"/>
</g>
<!-- libpng&#45;&gt;libz -->
<g id="edge30" class="edge">
<title>libpng&#45;&gt;libz</title>
<path fill="none" stroke="black" d="M879.88,-72.76C878.09,-64.79 877.57,-54.97 878.31,-45.91"/>
<polygon fill="black" stroke="black" points="881.75,-46.57 879.79,-36.16 874.83,-45.53 881.75,-46.57"/>
</g>
<!-- libpng&#45;&gt;libz -->
<g id="edge42" class="edge">
<title>libpng&#45;&gt;libz</title>
<path fill="none" stroke="black" d="M891.49,-71.7C891.49,-64.41 891.49,-55.73 891.49,-47.54"/>
<polygon fill="black" stroke="black" points="894.99,-47.62 891.49,-37.62 887.99,-47.62 894.99,-47.62"/>
</g>
<!-- libpng&#45;&gt;libz -->
<g id="edge51" class="edge">
<title>libpng&#45;&gt;libz</title>
<path fill="none" stroke="black" d="M903.09,-72.76C904.88,-64.79 905.4,-54.97 904.66,-45.91"/>
<polygon fill="black" stroke="black" points="908.14,-45.53 903.18,-36.16 901.22,-46.57 908.14,-45.53"/>
</g>
<!-- libiconv -->
<g id="node30" class="node">
<title>libiconv</title>
<ellipse fill="none" stroke="black" cx="1167.49" cy="-90" rx="41.12" ry="18"/>
<text text-anchor="middle" x="1167.49" y="-84.95" font-family="Times,serif" font-size="14.00">libiconv</text>
</g>
<!-- libintl&#45;&gt;libiconv -->
<g id="edge35" class="edge">
<title>libintl&#45;&gt;libiconv</title>
<path fill="none" stroke="black" d="M1203.61,-146.15C1196.23,-137.79 1187.82,-127.09 1180.87,-117.34"/>
<polygon fill="black" stroke="black" points="1183.89,-115.56 1175.35,-109.29 1178.11,-119.52 1183.89,-115.56"/>
</g>
<!-- libintl&#45;&gt;libiconv -->
<g id="edge56" class="edge">
<title>libintl&#45;&gt;libiconv</title>
<path fill="none" stroke="black" d="M1213.53,-144.05C1207.86,-135.35 1199.91,-124.59 1192.13,-115.03"/>
<polygon fill="black" stroke="black" points="1194.91,-112.9 1185.79,-107.51 1189.56,-117.41 1194.91,-112.9"/>
</g>
<!-- libfontconfig&#45;&gt;libexpat -->
<g id="edge45" class="edge">
<title>libfontconfig&#45;&gt;libexpat</title>
<path fill="none" stroke="black" d="M973.23,-220.56C939.35,-210 889.64,-194.33 846.49,-180 844.12,-179.22 841.7,-178.4 839.26,-177.58"/>
<polygon fill="black" stroke="black" points="840.58,-174.33 829.98,-174.41 838.31,-180.95 840.58,-174.33"/>
</g>
<!-- libfontconfig&#45;&gt;libfreetype -->
<g id="edge46" class="edge">
<title>libfontconfig&#45;&gt;libfreetype</title>
<path fill="none" stroke="black" d="M989.21,-217.12C974.5,-207.5 955.55,-195.1 939.49,-184.59"/>
<polygon fill="black" stroke="black" points="941.48,-181.71 931.2,-179.17 937.65,-187.57 941.48,-181.71"/>
</g>
<!-- libfontconfig&#45;&gt;libiconv -->
<g id="edge47" class="edge">
<title>libfontconfig&#45;&gt;libiconv</title>
<path fill="none" stroke="black" d="M1005.45,-215.82C997.72,-196.46 989.24,-164.98 1004.49,-144 1029.53,-109.53 1077.55,-97.04 1115.01,-92.72"/>
<polygon fill="black" stroke="black" points="1115.14,-96.23 1124.75,-91.78 1114.46,-89.26 1115.14,-96.23"/>
</g>
<!-- libxml2&#45;&gt;libz -->
<g id="edge43" class="edge">
<title>libxml2&#45;&gt;libz</title>
<path fill="none" stroke="black" d="M1054.45,-143.8C1054.61,-124.13 1051.85,-92.08 1034.49,-72 1008.11,-41.5 962.5,-28.53 929.89,-23.03"/>
<polygon fill="black" stroke="black" points="930.42,-19.57 920.01,-21.55 929.38,-26.49 930.42,-19.57"/>
</g>
<!-- libxml2&#45;&gt;libiconv -->
<g id="edge44" class="edge">
<title>libxml2&#45;&gt;libiconv</title>
<path fill="none" stroke="black" d="M1076.55,-146.83C1093.32,-136.54 1116.24,-122.46 1134.88,-111.02"/>
<polygon fill="black" stroke="black" points="1136.47,-114.15 1143.16,-105.94 1132.81,-108.19 1136.47,-114.15"/>
</g>
</g>
</svg>
