<?xml version="1.0" encoding="UTF-8" standalone="no"?>
<!DOCTYPE svg PUBLIC "-//W3C//DTD SVG 1.1//EN"
 "http://www.w3.org/Graphics/SVG/1.1/DTD/svg11.dtd">
<!-- Generated by graphviz version 11.0.0 (0)
 -->
<!-- Title: G Pages: 1 -->
<svg width="1333pt" height="548pt"
 viewBox="0.00 0.00 1333.04 548.00" xmlns="http://www.w3.org/2000/svg" xmlns:xlink="http://www.w3.org/1999/xlink">
<g id="graph0" class="graph" transform="scale(1 1) rotate(0) translate(4 544)">
<title>G</title>
<polygon fill="white" stroke="none" points="-4,4 -4,-544 1329.04,-544 1329.04,4 -4,4"/>
<!-- ghostscript -->
<g id="node1" class="node">
<title>ghostscript</title>
<ellipse fill="none" stroke="black" cx="747.88" cy="-522" rx="51.35" ry="18"/>
<text text-anchor="middle" x="747.88" y="-516.95" font-family="Times,serif" font-size="14.00">ghostscript</text>
</g>
<!-- jbig2dec -->
<g id="node2" class="node">
<title>jbig2dec</title>
<ellipse fill="none" stroke="black" cx="865.88" cy="-378" rx="42.65" ry="18"/>
<text text-anchor="middle" x="865.88" y="-372.95" font-family="Times,serif" font-size="14.00">jbig2dec</text>
</g>
<!-- ghostscript&#45;&gt;jbig2dec -->
<g id="edge1" class="edge">
<title>ghostscript&#45;&gt;jbig2dec</title>
<path fill="none" stroke="black" d="M747.43,-503.51C747.81,-484.16 751.12,-452.96 766.88,-432 780.32,-414.12 801.61,-401.62 821,-393.27"/>
<polygon fill="black" stroke="black" points="822.14,-396.59 830.11,-389.61 819.53,-390.09 822.14,-396.59"/>
</g>
<!-- libidn -->
<g id="node3" class="node">
<title>libidn</title>
<ellipse fill="none" stroke="black" cx="807.88" cy="-450" rx="32.41" ry="18"/>
<text text-anchor="middle" x="807.88" y="-444.95" font-family="Times,serif" font-size="14.00">libidn</text>
</g>
<!-- ghostscript&#45;&gt;libidn -->
<g id="edge2" class="edge">
<title>ghostscript&#45;&gt;libidn</title>
<path fill="none" stroke="black" d="M762.1,-504.41C769.63,-495.62 779.03,-484.66 787.34,-474.96"/>
<polygon fill="black" stroke="black" points="789.75,-477.53 793.6,-467.66 784.43,-472.97 789.75,-477.53"/>
</g>
<!-- libtesseract -->
<g id="node4" class="node">
<title>libtesseract</title>
<ellipse fill="none" stroke="black" cx="611.88" cy="-450" rx="52.38" ry="18"/>
<text text-anchor="middle" x="611.88" y="-444.95" font-family="Times,serif" font-size="14.00">libtesseract</text>
</g>
<!-- ghostscript&#45;&gt;libtesseract -->
<g id="edge3" class="edge">
<title>ghostscript&#45;&gt;libtesseract</title>
<path fill="none" stroke="black" d="M719.7,-506.5C699.55,-496.12 672.2,-482.05 650.08,-470.66"/>
<polygon fill="black" stroke="black" points="651.86,-467.64 641.37,-466.18 648.66,-473.87 651.86,-467.64"/>
</g>
<!-- libpng -->
<g id="node17" class="node">
<title>libpng</title>
<ellipse fill="none" stroke="black" cx="663.88" cy="-90" rx="34.46" ry="18"/>
<text text-anchor="middle" x="663.88" y="-84.95" font-family="Times,serif" font-size="14.00">libpng</text>
</g>
<!-- jbig2dec&#45;&gt;libpng -->
<g id="edge55" class="edge">
<title>jbig2dec&#45;&gt;libpng</title>
<path fill="none" stroke="black" d="M856.6,-360.11C834.57,-320.6 776.38,-219.75 715.88,-144 707.5,-133.51 697.34,-122.79 688.22,-113.75"/>
<polygon fill="black" stroke="black" points="690.93,-111.5 681.32,-107.04 686.05,-116.52 690.93,-111.5"/>
</g>
<!-- leptonica -->
<g id="node5" class="node">
<title>leptonica</title>
<ellipse fill="none" stroke="black" cx="873.88" cy="-162" rx="44.7" ry="18"/>
<text text-anchor="middle" x="873.88" y="-156.95" font-family="Times,serif" font-size="14.00">leptonica</text>
</g>
<!-- libtesseract&#45;&gt;leptonica -->
<g id="edge4" class="edge">
<title>libtesseract&#45;&gt;leptonica</title>
<path fill="none" stroke="black" d="M627.1,-432.39C671.16,-384.29 798.99,-244.75 851.23,-187.72"/>
<polygon fill="black" stroke="black" points="853.75,-190.16 857.92,-180.42 848.59,-185.43 853.75,-190.16"/>
</g>
<!-- pango -->
<g id="node6" class="node">
<title>pango</title>
<ellipse fill="none" stroke="black" cx="498.88" cy="-378" rx="33.44" ry="18"/>
<text text-anchor="middle" x="498.88" y="-372.95" font-family="Times,serif" font-size="14.00">pango</text>
</g>
<!-- libtesseract&#45;&gt;pango -->
<g id="edge5" class="edge">
<title>libtesseract&#45;&gt;pango</title>
<path fill="none" stroke="black" d="M587.36,-433.81C570.49,-423.36 547.95,-409.4 529.84,-398.18"/>
<polygon fill="black" stroke="black" points="531.93,-395.36 521.59,-393.07 528.25,-401.31 531.93,-395.36"/>
</g>
<!-- cpu_features -->
<g id="node7" class="node">
<title>cpu_features</title>
<ellipse fill="none" stroke="black" cx="389.88" cy="-378" rx="58" ry="18"/>
<text text-anchor="middle" x="389.88" y="-372.95" font-family="Times,serif" font-size="14.00">cpu_features</text>
</g>
<!-- libtesseract&#45;&gt;cpu_features -->
<g id="edge6" class="edge">
<title>libtesseract&#45;&gt;cpu_features</title>
<path fill="none" stroke="black" d="M574.22,-437.13C537.39,-425.51 481.07,-407.75 440.37,-394.92"/>
<polygon fill="black" stroke="black" points="441.63,-391.65 431.04,-391.98 439.53,-398.32 441.63,-391.65"/>
</g>
<!-- leptonica&#45;&gt;libpng -->
<g id="edge44" class="edge">
<title>leptonica&#45;&gt;libpng</title>
<path fill="none" stroke="black" d="M838.46,-150.54C804.49,-140.32 751.87,-124.01 706.88,-108 705.06,-107.35 703.2,-106.68 701.33,-105.98"/>
<polygon fill="black" stroke="black" points="702.61,-102.73 692.02,-102.44 700.12,-109.27 702.61,-102.73"/>
</g>
<!-- libgif -->
<g id="node28" class="node">
<title>libgif</title>
<ellipse fill="none" stroke="black" cx="828.88" cy="-90" rx="30.88" ry="18"/>
<text text-anchor="middle" x="828.88" y="-84.95" font-family="Times,serif" font-size="14.00">libgif</text>
</g>
<!-- leptonica&#45;&gt;libgif -->
<g id="edge45" class="edge">
<title>leptonica&#45;&gt;libgif</title>
<path fill="none" stroke="black" d="M862.99,-144.05C857.71,-135.85 851.27,-125.83 845.41,-116.71"/>
<polygon fill="black" stroke="black" points="848.53,-115.1 840.18,-108.58 842.64,-118.88 848.53,-115.1"/>
</g>
<!-- libtiff -->
<g id="node29" class="node">
<title>libtiff</title>
<ellipse fill="none" stroke="black" cx="747.88" cy="-90" rx="31.9" ry="18"/>
<text text-anchor="middle" x="747.88" y="-84.95" font-family="Times,serif" font-size="14.00">libtiff</text>
</g>
<!-- leptonica&#45;&gt;libtiff -->
<g id="edge46" class="edge">
<title>leptonica&#45;&gt;libtiff</title>
<path fill="none" stroke="black" d="M848.38,-146.83C828.61,-135.85 801.08,-120.56 779.83,-108.75"/>
<polygon fill="black" stroke="black" points="781.74,-105.81 771.29,-104.01 778.34,-111.92 781.74,-105.81"/>
</g>
<!-- libwebp -->
<g id="node30" class="node">
<title>libwebp</title>
<ellipse fill="none" stroke="black" cx="917.88" cy="-90" rx="40.6" ry="18"/>
<text text-anchor="middle" x="917.88" y="-84.95" font-family="Times,serif" font-size="14.00">libwebp</text>
</g>
<!-- leptonica&#45;&gt;libwebp -->
<g id="edge47" class="edge">
<title>leptonica&#45;&gt;libwebp</title>
<path fill="none" stroke="black" d="M884.53,-144.05C889.56,-136.06 895.67,-126.33 901.29,-117.4"/>
<polygon fill="black" stroke="black" points="904.16,-119.4 906.52,-109.07 898.24,-115.67 904.16,-119.4"/>
</g>
<!-- libopenjpeg -->
<g id="node31" class="node">
<title>libopenjpeg</title>
<ellipse fill="none" stroke="black" cx="1030.88" cy="-90" rx="54.42" ry="18"/>
<text text-anchor="middle" x="1030.88" y="-84.95" font-family="Times,serif" font-size="14.00">libopenjpeg</text>
</g>
<!-- leptonica&#45;&gt;libopenjpeg -->
<g id="edge48" class="edge">
<title>leptonica&#45;&gt;libopenjpeg</title>
<path fill="none" stroke="black" d="M903.04,-148C927.23,-137.21 961.93,-121.74 989.08,-109.64"/>
<polygon fill="black" stroke="black" points="990.36,-112.9 998.07,-105.63 987.51,-106.51 990.36,-112.9"/>
</g>
<!-- libjpeg&#45;turbo -->
<g id="node32" class="node">
<title>libjpeg&#45;turbo</title>
<ellipse fill="none" stroke="black" cx="1161.88" cy="-90" rx="59.03" ry="18"/>
<text text-anchor="middle" x="1161.88" y="-84.95" font-family="Times,serif" font-size="14.00">libjpeg&#45;turbo</text>
</g>
<!-- leptonica&#45;&gt;libjpeg&#45;turbo -->
<g id="edge49" class="edge">
<title>leptonica&#45;&gt;libjpeg&#45;turbo</title>
<path fill="none" stroke="black" d="M911.66,-152C955.51,-141.54 1029.97,-123.69 1093.88,-108 1097.9,-107.01 1102.05,-105.99 1106.22,-104.96"/>
<polygon fill="black" stroke="black" points="1106.94,-108.38 1115.8,-102.58 1105.25,-101.59 1106.94,-108.38"/>
</g>
<!-- liblcms2 -->
<g id="node33" class="node">
<title>liblcms2</title>
<ellipse fill="none" stroke="black" cx="1281.88" cy="-90" rx="43.16" ry="18"/>
<text text-anchor="middle" x="1281.88" y="-84.95" font-family="Times,serif" font-size="14.00">liblcms2</text>
</g>
<!-- leptonica&#45;&gt;liblcms2 -->
<g id="edge50" class="edge">
<title>leptonica&#45;&gt;liblcms2</title>
<path fill="none" stroke="black" d="M917.06,-156.94C984.49,-150.07 1118.59,-134.28 1229.88,-108 1232.81,-107.31 1235.81,-106.53 1238.83,-105.69"/>
<polygon fill="black" stroke="black" points="1239.63,-109.1 1248.21,-102.89 1237.63,-102.39 1239.63,-109.1"/>
</g>
<!-- cairo -->
<g id="node8" class="node">
<title>cairo</title>
<ellipse fill="none" stroke="black" cx="498.88" cy="-306" rx="29.34" ry="18"/>
<text text-anchor="middle" x="498.88" y="-300.95" font-family="Times,serif" font-size="14.00">cairo</text>
</g>
<!-- pango&#45;&gt;cairo -->
<g id="edge7" class="edge">
<title>pango&#45;&gt;cairo</title>
<path fill="none" stroke="black" d="M498.88,-359.7C498.88,-352.41 498.88,-343.73 498.88,-335.54"/>
<polygon fill="black" stroke="black" points="502.38,-335.62 498.88,-325.62 495.38,-335.62 502.38,-335.62"/>
</g>
<!-- fribidi -->
<g id="node9" class="node">
<title>fribidi</title>
<ellipse fill="none" stroke="black" cx="190.88" cy="-306" rx="33.95" ry="18"/>
<text text-anchor="middle" x="190.88" y="-300.95" font-family="Times,serif" font-size="14.00">fribidi</text>
</g>
<!-- pango&#45;&gt;fribidi -->
<g id="edge8" class="edge">
<title>pango&#45;&gt;fribidi</title>
<path fill="none" stroke="black" d="M473.88,-365.81C468.36,-363.65 462.49,-361.57 456.88,-360 360.18,-333 330.68,-350.61 233.88,-324 231.64,-323.38 229.36,-322.69 227.08,-321.95"/>
<polygon fill="black" stroke="black" points="228.51,-318.74 217.92,-318.68 226.16,-325.34 228.51,-318.74"/>
</g>
<!-- libharfbuzz -->
<g id="node10" class="node">
<title>libharfbuzz</title>
<ellipse fill="none" stroke="black" cx="295.88" cy="-306" rx="52.89" ry="18"/>
<text text-anchor="middle" x="295.88" y="-300.95" font-family="Times,serif" font-size="14.00">libharfbuzz</text>
</g>
<!-- pango&#45;&gt;libharfbuzz -->
<g id="edge9" class="edge">
<title>pango&#45;&gt;libharfbuzz</title>
<path fill="none" stroke="black" d="M473.22,-366.3C467.85,-364.15 462.2,-361.95 456.88,-360 419.68,-346.37 377.08,-332.42 345.05,-322.25"/>
<polygon fill="black" stroke="black" points="346.22,-318.95 335.63,-319.28 344.11,-325.62 346.22,-318.95"/>
</g>
<!-- glib -->
<g id="node12" class="node">
<title>glib</title>
<ellipse fill="none" stroke="black" cx="234.88" cy="-234" rx="27" ry="18"/>
<text text-anchor="middle" x="234.88" y="-228.95" font-family="Times,serif" font-size="14.00">glib</text>
</g>
<!-- cairo&#45;&gt;glib -->
<g id="edge23" class="edge">
<title>cairo&#45;&gt;glib</title>
<path fill="none" stroke="black" d="M472.1,-298.24C433.06,-288.34 358.27,-269.21 294.88,-252 286.93,-249.84 278.4,-247.46 270.34,-245.19"/>
<polygon fill="black" stroke="black" points="271.4,-241.85 260.82,-242.48 269.49,-248.58 271.4,-241.85"/>
</g>
<!-- cairo&#45;&gt;libpng -->
<g id="edge24" class="edge">
<title>cairo&#45;&gt;libpng</title>
<path fill="none" stroke="black" d="M527.5,-301.71C577.84,-295.28 678.9,-279.23 699.88,-252 730.75,-211.94 701.91,-150.55 681.04,-116.31"/>
<polygon fill="black" stroke="black" points="684.27,-114.87 675.97,-108.29 678.35,-118.61 684.27,-114.87"/>
</g>
<!-- libfontconfig -->
<g id="node23" class="node">
<title>libfontconfig</title>
<ellipse fill="none" stroke="black" cx="395.88" cy="-234" rx="59.03" ry="18"/>
<text text-anchor="middle" x="395.88" y="-228.95" font-family="Times,serif" font-size="14.00">libfontconfig</text>
</g>
<!-- cairo&#45;&gt;libfontconfig -->
<g id="edge25" class="edge">
<title>cairo&#45;&gt;libfontconfig</title>
<path fill="none" stroke="black" d="M479.99,-292.16C465.58,-282.37 445.39,-268.65 428.4,-257.1"/>
<polygon fill="black" stroke="black" points="430.84,-254.53 420.6,-251.8 426.91,-260.32 430.84,-254.53"/>
</g>
<!-- libxml2 -->
<g id="node24" class="node">
<title>libxml2</title>
<ellipse fill="none" stroke="black" cx="347.88" cy="-162" rx="40.09" ry="18"/>
<text text-anchor="middle" x="347.88" y="-156.95" font-family="Times,serif" font-size="14.00">libxml2</text>
</g>
<!-- cairo&#45;&gt;libxml2 -->
<g id="edge26" class="edge">
<title>cairo&#45;&gt;libxml2</title>
<path fill="none" stroke="black" d="M469.06,-305.62C429.38,-304.62 360.42,-296.16 327.88,-252 314.62,-234.01 322.05,-208.82 331.4,-189.82"/>
<polygon fill="black" stroke="black" points="334.45,-191.53 336.1,-181.06 328.29,-188.21 334.45,-191.53"/>
</g>
<!-- libpixman -->
<g id="node25" class="node">
<title>libpixman</title>
<ellipse fill="none" stroke="black" cx="559.88" cy="-234" rx="48.79" ry="18"/>
<text text-anchor="middle" x="559.88" y="-228.95" font-family="Times,serif" font-size="14.00">libpixman</text>
</g>
<!-- cairo&#45;&gt;libpixman -->
<g id="edge27" class="edge">
<title>cairo&#45;&gt;libpixman</title>
<path fill="none" stroke="black" d="M512.12,-289.81C519.63,-281.19 529.22,-270.18 537.84,-260.29"/>
<polygon fill="black" stroke="black" points="540.46,-262.61 544.39,-252.77 535.19,-258.01 540.46,-262.61"/>
</g>
<!-- liblzo -->
<g id="node26" class="node">
<title>liblzo</title>
<ellipse fill="none" stroke="black" cx="658.88" cy="-234" rx="31.9" ry="18"/>
<text text-anchor="middle" x="658.88" y="-228.95" font-family="Times,serif" font-size="14.00">liblzo</text>
</g>
<!-- cairo&#45;&gt;liblzo -->
<g id="edge28" class="edge">
<title>cairo&#45;&gt;liblzo</title>
<path fill="none" stroke="black" d="M522.14,-294.82C548.89,-283.12 593.07,-263.79 623.95,-250.28"/>
<polygon fill="black" stroke="black" points="625.13,-253.59 632.88,-246.37 622.32,-247.17 625.13,-253.59"/>
</g>
<!-- icu4c -->
<g id="node11" class="node">
<title>icu4c</title>
<ellipse fill="none" stroke="black" cx="30.88" cy="-234" rx="30.88" ry="18"/>
<text text-anchor="middle" x="30.88" y="-228.95" font-family="Times,serif" font-size="14.00">icu4c</text>
</g>
<!-- libharfbuzz&#45;&gt;icu4c -->
<g id="edge10" class="edge">
<title>libharfbuzz&#45;&gt;icu4c</title>
<path fill="none" stroke="black" d="M255.93,-293.73C248.61,-291.76 241.03,-289.77 233.88,-288 161.86,-270.19 141.54,-274.61 70.88,-252 69.05,-251.42 67.19,-250.78 65.32,-250.11"/>
<polygon fill="black" stroke="black" points="66.72,-246.89 56.13,-246.53 64.18,-253.42 66.72,-246.89"/>
</g>
<!-- libharfbuzz&#45;&gt;glib -->
<g id="edge11" class="edge">
<title>libharfbuzz&#45;&gt;glib</title>
<path fill="none" stroke="black" d="M281.42,-288.41C273.65,-279.5 263.94,-268.35 255.41,-258.56"/>
<polygon fill="black" stroke="black" points="258.19,-256.42 248.98,-251.18 252.91,-261.02 258.19,-256.42"/>
</g>
<!-- libfreetype -->
<g id="node13" class="node">
<title>libfreetype</title>
<ellipse fill="none" stroke="black" cx="593.88" cy="-162" rx="50.84" ry="18"/>
<text text-anchor="middle" x="593.88" y="-156.95" font-family="Times,serif" font-size="14.00">libfreetype</text>
</g>
<!-- libharfbuzz&#45;&gt;libfreetype -->
<g id="edge12" class="edge">
<title>libharfbuzz&#45;&gt;libfreetype</title>
<path fill="none" stroke="black" d="M341.32,-296.52C376.5,-288.61 425.53,-274.57 463.88,-252 483.93,-240.2 483.23,-229.9 501.88,-216 518.52,-203.59 538.33,-191.85 555.29,-182.58"/>
<polygon fill="black" stroke="black" points="556.94,-185.67 564.1,-177.86 553.63,-179.5 556.94,-185.67"/>
</g>
<!-- libgraphite2 -->
<g id="node14" class="node">
<title>libgraphite2</title>
<ellipse fill="none" stroke="black" cx="134.88" cy="-234" rx="55.45" ry="18"/>
<text text-anchor="middle" x="134.88" y="-228.95" font-family="Times,serif" font-size="14.00">libgraphite2</text>
</g>
<!-- libharfbuzz&#45;&gt;libgraphite2 -->
<g id="edge13" class="edge">
<title>libharfbuzz&#45;&gt;libgraphite2</title>
<path fill="none" stroke="black" d="M264.07,-291.17C239.31,-280.41 204.72,-265.36 177.56,-253.56"/>
<polygon fill="black" stroke="black" points="179.13,-250.42 168.56,-249.64 176.34,-256.84 179.13,-250.42"/>
</g>
<!-- libz -->
<g id="node18" class="node">
<title>libz</title>
<ellipse fill="none" stroke="black" cx="663.88" cy="-18" rx="27" ry="18"/>
<text text-anchor="middle" x="663.88" y="-12.95" font-family="Times,serif" font-size="14.00">libz</text>
</g>
<!-- glib&#45;&gt;libz -->
<g id="edge18" class="edge">
<title>glib&#45;&gt;libz</title>
<path fill="none" stroke="black" d="M211.06,-224.78C204.17,-221.71 196.81,-218.38 189.88,-216 120.95,-192.29 75.41,-236.92 29.88,-180 19.88,-167.51 21.53,-157.65 29.88,-144 92.5,-41.72 497.15,-23.03 625.2,-19.7"/>
<polygon fill="black" stroke="black" points="625.28,-23.2 635.2,-19.46 625.11,-16.2 625.28,-23.2"/>
</g>
<!-- glib&#45;&gt;libz -->
<g id="edge39" class="edge">
<title>glib&#45;&gt;libz</title>
<path fill="none" stroke="black" d="M217.74,-219.88C214.51,-218.46 211.15,-217.12 207.88,-216 138.95,-192.29 93.41,-236.92 47.88,-180 37.88,-167.51 39.53,-157.65 47.88,-144 109.31,-43.66 499.9,-23.77 625.29,-19.91"/>
<polygon fill="black" stroke="black" points="625.17,-23.41 635.07,-19.63 624.97,-16.42 625.17,-23.41"/>
</g>
<!-- libpcre2 -->
<g id="node19" class="node">
<title>libpcre2</title>
<ellipse fill="none" stroke="black" cx="88.88" cy="-162" rx="41.12" ry="18"/>
<text text-anchor="middle" x="88.88" y="-156.95" font-family="Times,serif" font-size="14.00">libpcre2</text>
</g>
<!-- glib&#45;&gt;libpcre2 -->
<g id="edge19" class="edge">
<title>glib&#45;&gt;libpcre2</title>
<path fill="none" stroke="black" d="M211.71,-224.13C187.64,-213.63 150.04,-195.83 122.7,-182.14"/>
<polygon fill="black" stroke="black" points="124.63,-179.19 114.13,-177.8 121.47,-185.44 124.63,-179.19"/>
</g>
<!-- glib&#45;&gt;libpcre2 -->
<g id="edge40" class="edge">
<title>glib&#45;&gt;libpcre2</title>
<path fill="none" stroke="black" d="M215.33,-221.13C193.27,-209.68 157.13,-192.25 129.05,-179.47"/>
<polygon fill="black" stroke="black" points="130.67,-176.36 120.11,-175.44 127.79,-182.74 130.67,-176.36"/>
</g>
<!-- libintl -->
<g id="node20" class="node">
<title>libintl</title>
<ellipse fill="none" stroke="black" cx="180.88" cy="-162" rx="32.93" ry="18"/>
<text text-anchor="middle" x="180.88" y="-156.95" font-family="Times,serif" font-size="14.00">libintl</text>
</g>
<!-- glib&#45;&gt;libintl -->
<g id="edge20" class="edge">
<title>glib&#45;&gt;libintl</title>
<path fill="none" stroke="black" d="M218.71,-219.17C210.98,-210.66 202,-199.46 194.61,-189.31"/>
<polygon fill="black" stroke="black" points="197.59,-187.45 188.99,-181.26 191.85,-191.46 197.59,-187.45"/>
</g>
<!-- glib&#45;&gt;libintl -->
<g id="edge41" class="edge">
<title>glib&#45;&gt;libintl</title>
<path fill="none" stroke="black" d="M227.92,-216.41C221.94,-207.37 213.38,-196.04 205.13,-186.15"/>
<polygon fill="black" stroke="black" points="207.9,-184 198.71,-178.72 202.6,-188.57 207.9,-184"/>
</g>
<!-- libffi -->
<g id="node21" class="node">
<title>libffi</title>
<ellipse fill="none" stroke="black" cx="260.88" cy="-162" rx="29.34" ry="18"/>
<text text-anchor="middle" x="260.88" y="-156.95" font-family="Times,serif" font-size="14.00">libffi</text>
</g>
<!-- glib&#45;&gt;libffi -->
<g id="edge21" class="edge">
<title>glib&#45;&gt;libffi</title>
<path fill="none" stroke="black" d="M235.39,-215.7C237.55,-207.64 240.97,-197.88 244.69,-188.96"/>
<polygon fill="black" stroke="black" points="247.79,-190.61 248.7,-180.05 241.4,-187.73 247.79,-190.61"/>
</g>
<!-- glib&#45;&gt;libffi -->
<g id="edge42" class="edge">
<title>glib&#45;&gt;libffi</title>
<path fill="none" stroke="black" d="M246.37,-217.46C250.14,-209.76 254,-200.21 257.02,-191.27"/>
<polygon fill="black" stroke="black" points="260.3,-192.49 259.88,-181.91 253.61,-190.45 260.3,-192.49"/>
</g>
<!-- libbrotli -->
<g id="node15" class="node">
<title>libbrotli</title>
<ellipse fill="none" stroke="black" cx="570.88" cy="-90" rx="40.6" ry="18"/>
<text text-anchor="middle" x="570.88" y="-84.95" font-family="Times,serif" font-size="14.00">libbrotli</text>
</g>
<!-- libfreetype&#45;&gt;libbrotli -->
<g id="edge14" class="edge">
<title>libfreetype&#45;&gt;libbrotli</title>
<path fill="none" stroke="black" d="M582.43,-144.05C579.19,-136.6 576,-127.64 573.52,-119.22"/>
<polygon fill="black" stroke="black" points="576.95,-118.52 571.03,-109.74 570.18,-120.3 576.95,-118.52"/>
</g>
<!-- libfreetype&#45;&gt;libbrotli -->
<g id="edge35" class="edge">
<title>libfreetype&#45;&gt;libbrotli</title>
<path fill="none" stroke="black" d="M594.11,-143.7C592.38,-136.04 589.59,-126.85 586.45,-118.3"/>
<polygon fill="black" stroke="black" points="589.71,-117.01 582.75,-109.03 583.21,-119.61 589.71,-117.01"/>
</g>
<!-- libbz2 -->
<g id="node16" class="node">
<title>libbz2</title>
<ellipse fill="none" stroke="black" cx="477.88" cy="-90" rx="33.95" ry="18"/>
<text text-anchor="middle" x="477.88" y="-84.95" font-family="Times,serif" font-size="14.00">libbz2</text>
</g>
<!-- libfreetype&#45;&gt;libbz2 -->
<g id="edge15" class="edge">
<title>libfreetype&#45;&gt;libbz2</title>
<path fill="none" stroke="black" d="M564.86,-146.83C546.73,-136.7 523.65,-122.91 505.74,-111.56"/>
<polygon fill="black" stroke="black" points="507.72,-108.67 497.41,-106.2 503.93,-114.56 507.72,-108.67"/>
</g>
<!-- libfreetype&#45;&gt;libbz2 -->
<g id="edge36" class="edge">
<title>libfreetype&#45;&gt;libbz2</title>
<path fill="none" stroke="black" d="M573.32,-145.12C556.37,-134.12 532.19,-119.5 512.34,-108.23"/>
<polygon fill="black" stroke="black" points="514.17,-105.24 503.74,-103.42 510.75,-111.35 514.17,-105.24"/>
</g>
<!-- libfreetype&#45;&gt;libpng -->
<g id="edge16" class="edge">
<title>libfreetype&#45;&gt;libpng</title>
<path fill="none" stroke="black" d="M604.95,-144.05C613.34,-134.67 624.97,-122.9 635.75,-112.83"/>
<polygon fill="black" stroke="black" points="637.97,-115.53 643.01,-106.21 633.26,-110.36 637.97,-115.53"/>
</g>
<!-- libfreetype&#45;&gt;libpng -->
<g id="edge37" class="edge">
<title>libfreetype&#45;&gt;libpng</title>
<path fill="none" stroke="black" d="M615.13,-145.46C624.89,-136.74 636.23,-125.65 645.6,-115.76"/>
<polygon fill="black" stroke="black" points="648.02,-118.31 652.21,-108.58 642.87,-113.57 648.02,-118.31"/>
</g>
<!-- libpng&#45;&gt;libz -->
<g id="edge17" class="edge">
<title>libpng&#45;&gt;libz</title>
<path fill="none" stroke="black" d="M642.23,-75.83C636.54,-65.87 635.39,-51.97 638.77,-40.42"/>
<polygon fill="black" stroke="black" points="641.81,-42.19 642.78,-31.64 635.45,-39.28 641.81,-42.19"/>
</g>
<!-- libpng&#45;&gt;libz -->
<g id="edge29" class="edge">
<title>libpng&#45;&gt;libz</title>
<path fill="none" stroke="black" d="M652.28,-72.76C650.49,-64.79 649.96,-54.97 650.7,-45.91"/>
<polygon fill="black" stroke="black" points="654.14,-46.57 652.18,-36.16 647.22,-45.53 654.14,-46.57"/>
</g>
<!-- libpng&#45;&gt;libz -->
<g id="edge38" class="edge">
<title>libpng&#45;&gt;libz</title>
<path fill="none" stroke="black" d="M663.88,-71.7C663.88,-64.41 663.88,-55.73 663.88,-47.54"/>
<polygon fill="black" stroke="black" points="667.38,-47.62 663.88,-37.62 660.38,-47.62 667.38,-47.62"/>
</g>
<!-- libpng&#45;&gt;libz -->
<g id="edge54" class="edge">
<title>libpng&#45;&gt;libz</title>
<path fill="none" stroke="black" d="M675.48,-72.76C677.27,-64.79 677.79,-54.97 677.05,-45.91"/>
<polygon fill="black" stroke="black" points="680.53,-45.53 675.58,-36.16 673.61,-46.57 680.53,-45.53"/>
</g>
<!-- libpng&#45;&gt;libz -->
<g id="edge56" class="edge">
<title>libpng&#45;&gt;libz</title>
<path fill="none" stroke="black" d="M685.52,-75.83C691.22,-65.87 692.37,-51.97 688.98,-40.42"/>
<polygon fill="black" stroke="black" points="692.31,-39.28 684.98,-31.64 685.94,-42.19 692.31,-39.28"/>
</g>
<!-- libiconv -->
<g id="node22" class="node">
<title>libiconv</title>
<ellipse fill="none" stroke="black" cx="229.88" cy="-90" rx="41.12" ry="18"/>
<text text-anchor="middle" x="229.88" y="-84.95" font-family="Times,serif" font-size="14.00">libiconv</text>
</g>
<!-- libintl&#45;&gt;libiconv -->
<g id="edge22" class="edge">
<title>libintl&#45;&gt;libiconv</title>
<path fill="none" stroke="black" d="M186.86,-144.05C191.91,-135.56 199.02,-125.11 206.08,-115.73"/>
<polygon fill="black" stroke="black" points="208.71,-118.06 212.11,-108.02 203.19,-113.74 208.71,-118.06"/>
</g>
<!-- libintl&#45;&gt;libiconv -->
<g id="edge43" class="edge">
<title>libintl&#45;&gt;libiconv</title>
<path fill="none" stroke="black" d="M196.91,-146.15C203.69,-137.93 211.34,-127.46 217.66,-117.86"/>
<polygon fill="black" stroke="black" points="220.51,-119.9 222.88,-109.57 214.59,-116.17 220.51,-119.9"/>
</g>
<!-- libfontconfig&#45;&gt;libfreetype -->
<g id="edge32" class="edge">
<title>libfontconfig&#45;&gt;libfreetype</title>
<path fill="none" stroke="black" d="M433.12,-219.83C465.81,-208.28 513.46,-191.43 548.39,-179.08"/>
<polygon fill="black" stroke="black" points="549.11,-182.54 557.37,-175.91 546.78,-175.94 549.11,-182.54"/>
</g>
<!-- libfontconfig&#45;&gt;libiconv -->
<g id="edge33" class="edge">
<title>libfontconfig&#45;&gt;libiconv</title>
<path fill="none" stroke="black" d="M401.68,-215.76C407.05,-196.35 412.12,-164.82 396.88,-144 370.88,-108.48 320.91,-96.18 282.38,-92.2"/>
<polygon fill="black" stroke="black" points="283.11,-88.75 272.84,-91.38 282.51,-95.72 283.11,-88.75"/>
</g>
<!-- libexpat -->
<g id="node27" class="node">
<title>libexpat</title>
<ellipse fill="none" stroke="black" cx="484.88" cy="-162" rx="40.6" ry="18"/>
<text text-anchor="middle" x="484.88" y="-156.95" font-family="Times,serif" font-size="14.00">libexpat</text>
</g>
<!-- libfontconfig&#45;&gt;libexpat -->
<g id="edge34" class="edge">
<title>libfontconfig&#45;&gt;libexpat</title>
<path fill="none" stroke="black" d="M416.52,-216.76C428.42,-207.4 443.55,-195.5 456.55,-185.28"/>
<polygon fill="black" stroke="black" points="458.68,-188.06 464.38,-179.12 454.35,-182.56 458.68,-188.06"/>
</g>
<!-- libxml2&#45;&gt;libz -->
<g id="edge30" class="edge">
<title>libxml2&#45;&gt;libz</title>
<path fill="none" stroke="black" d="M359.37,-144.42C374.35,-124.13 402.48,-90.21 434.88,-72 495.88,-37.71 577.9,-25.58 625.41,-21.3"/>
<polygon fill="black" stroke="black" points="625.53,-24.81 635.21,-20.5 624.96,-17.83 625.53,-24.81"/>
</g>
<!-- libxml2&#45;&gt;libiconv -->
<g id="edge31" class="edge">
<title>libxml2&#45;&gt;libiconv</title>
<path fill="none" stroke="black" d="M324.28,-147C306.76,-136.61 282.62,-122.29 263.14,-110.73"/>
<polygon fill="black" stroke="black" points="265.12,-107.84 254.74,-105.75 261.55,-113.86 265.12,-107.84"/>
</g>
<!-- libtiff&#45;&gt;libz -->
<g id="edge51" class="edge">
<title>libtiff&#45;&gt;libz</title>
<path fill="none" stroke="black" d="M730.47,-74.5C718.53,-64.54 702.48,-51.17 689.13,-40.04"/>
<polygon fill="black" stroke="black" points="691.49,-37.45 681.57,-33.74 687.01,-42.83 691.49,-37.45"/>
</g>
<!-- libzstd -->
<g id="node34" class="node">
<title>libzstd</title>
<ellipse fill="none" stroke="black" cx="745.88" cy="-18" rx="35.49" ry="18"/>
<text text-anchor="middle" x="745.88" y="-12.95" font-family="Times,serif" font-size="14.00">libzstd</text>
</g>
<!-- libtiff&#45;&gt;libzstd -->
<g id="edge52" class="edge">
<title>libtiff&#45;&gt;libzstd</title>
<path fill="none" stroke="black" d="M747.38,-71.7C747.18,-64.41 746.93,-55.73 746.69,-47.54"/>
<polygon fill="black" stroke="black" points="750.2,-47.51 746.41,-37.62 743.2,-47.71 750.2,-47.51"/>
</g>
<!-- liblzma -->
<g id="node35" class="node">
<title>liblzma</title>
<ellipse fill="none" stroke="black" cx="838.88" cy="-18" rx="39.07" ry="18"/>
<text text-anchor="middle" x="838.88" y="-12.95" font-family="Times,serif" font-size="14.00">liblzma</text>
</g>
<!-- libtiff&#45;&gt;liblzma -->
<g id="edge53" class="edge">
<title>libtiff&#45;&gt;liblzma</title>
<path fill="none" stroke="black" d="M766.29,-74.83C778.99,-65.07 796.11,-51.9 810.53,-40.8"/>
<polygon fill="black" stroke="black" points="812.56,-43.66 818.35,-34.79 808.29,-38.12 812.56,-43.66"/>
</g>
</g>
</svg>
