<?xml version="1.0" encoding="UTF-8" standalone="no"?>
<!DOCTYPE svg PUBLIC "-//W3C//DTD SVG 1.1//EN"
 "http://www.w3.org/Graphics/SVG/1.1/DTD/svg11.dtd">
<!-- Generated by graphviz version 11.0.0 (0)
 -->
<!-- Title: G Pages: 1 -->
<svg width="576pt" height="260pt"
 viewBox="0.00 0.00 575.86 260.00" xmlns="http://www.w3.org/2000/svg" xmlns:xlink="http://www.w3.org/1999/xlink">
<g id="graph0" class="graph" transform="scale(1 1) rotate(0) translate(4 256)">
<title>G</title>
<polygon fill="white" stroke="none" points="-4,4 -4,-256 571.86,-256 571.86,4 -4,4"/>
<!-- libgeotiff -->
<g id="node1" class="node">
<title>libgeotiff</title>
<ellipse fill="none" stroke="black" cx="237.79" cy="-234" rx="45.21" ry="18"/>
<text text-anchor="middle" x="237.79" y="-228.95" font-family="Times,serif" font-size="14.00">libgeotiff</text>
</g>
<!-- libjpeg&#45;turbo -->
<g id="node2" class="node">
<title>libjpeg&#45;turbo</title>
<ellipse fill="none" stroke="black" cx="181.79" cy="-162" rx="59.03" ry="18"/>
<text text-anchor="middle" x="181.79" y="-156.95" font-family="Times,serif" font-size="14.00">libjpeg&#45;turbo</text>
</g>
<!-- libgeotiff&#45;&gt;libjpeg&#45;turbo -->
<g id="edge1" class="edge">
<title>libgeotiff&#45;&gt;libjpeg&#45;turbo</title>
<path fill="none" stroke="black" d="M224.52,-216.41C217.92,-208.16 209.8,-198.01 202.41,-188.78"/>
<polygon fill="black" stroke="black" points="205.28,-186.76 196.3,-181.14 199.82,-191.13 205.28,-186.76"/>
</g>
<!-- libproj -->
<g id="node3" class="node">
<title>libproj</title>
<ellipse fill="none" stroke="black" cx="294.79" cy="-162" rx="35.49" ry="18"/>
<text text-anchor="middle" x="294.79" y="-156.95" font-family="Times,serif" font-size="14.00">libproj</text>
</g>
<!-- libgeotiff&#45;&gt;libproj -->
<g id="edge2" class="edge">
<title>libgeotiff&#45;&gt;libproj</title>
<path fill="none" stroke="black" d="M251.3,-216.41C258.29,-207.83 266.95,-197.19 274.7,-187.67"/>
<polygon fill="black" stroke="black" points="277.22,-190.13 280.82,-180.16 271.79,-185.71 277.22,-190.13"/>
</g>
<!-- libsqlite3 -->
<g id="node4" class="node">
<title>libsqlite3</title>
<ellipse fill="none" stroke="black" cx="196.79" cy="-90" rx="45.21" ry="18"/>
<text text-anchor="middle" x="196.79" y="-84.95" font-family="Times,serif" font-size="14.00">libsqlite3</text>
</g>
<!-- libproj&#45;&gt;libsqlite3 -->
<g id="edge3" class="edge">
<title>libproj&#45;&gt;libsqlite3</title>
<path fill="none" stroke="black" d="M274.96,-146.83C261.25,-137.04 242.75,-123.83 227.19,-112.71"/>
<polygon fill="black" stroke="black" points="229.35,-109.96 219.18,-106.99 225.29,-115.65 229.35,-109.96"/>
</g>
<!-- libtiff -->
<g id="node5" class="node">
<title>libtiff</title>
<ellipse fill="none" stroke="black" cx="404.79" cy="-90" rx="31.9" ry="18"/>
<text text-anchor="middle" x="404.79" y="-84.95" font-family="Times,serif" font-size="14.00">libtiff</text>
</g>
<!-- libproj&#45;&gt;libtiff -->
<g id="edge4" class="edge">
<title>libproj&#45;&gt;libtiff</title>
<path fill="none" stroke="black" d="M316.26,-147.34C332.83,-136.8 355.95,-122.08 374.42,-110.33"/>
<polygon fill="black" stroke="black" points="376.29,-113.29 382.84,-104.97 372.53,-107.38 376.29,-113.29"/>
</g>
<!-- libcurl -->
<g id="node6" class="node">
<title>libcurl</title>
<ellipse fill="none" stroke="black" cx="294.79" cy="-90" rx="34.97" ry="18"/>
<text text-anchor="middle" x="294.79" y="-84.95" font-family="Times,serif" font-size="14.00">libcurl</text>
</g>
<!-- libproj&#45;&gt;libcurl -->
<g id="edge5" class="edge">
<title>libproj&#45;&gt;libcurl</title>
<path fill="none" stroke="black" d="M294.79,-143.7C294.79,-136.41 294.79,-127.73 294.79,-119.54"/>
<polygon fill="black" stroke="black" points="298.29,-119.62 294.79,-109.62 291.29,-119.62 298.29,-119.62"/>
</g>
<!-- libzstd -->
<g id="node10" class="node">
<title>libzstd</title>
<ellipse fill="none" stroke="black" cx="364.79" cy="-18" rx="35.49" ry="18"/>
<text text-anchor="middle" x="364.79" y="-12.95" font-family="Times,serif" font-size="14.00">libzstd</text>
</g>
<!-- libtiff&#45;&gt;libzstd -->
<g id="edge11" class="edge">
<title>libtiff&#45;&gt;libzstd</title>
<path fill="none" stroke="black" d="M395.31,-72.41C390.68,-64.3 384.99,-54.35 379.79,-45.25"/>
<polygon fill="black" stroke="black" points="382.95,-43.73 374.95,-36.78 376.88,-47.2 382.95,-43.73"/>
</g>
<!-- libz -->
<g id="node11" class="node">
<title>libz</title>
<ellipse fill="none" stroke="black" cx="444.79" cy="-18" rx="27" ry="18"/>
<text text-anchor="middle" x="444.79" y="-12.95" font-family="Times,serif" font-size="14.00">libz</text>
</g>
<!-- libtiff&#45;&gt;libz -->
<g id="edge12" class="edge">
<title>libtiff&#45;&gt;libz</title>
<path fill="none" stroke="black" d="M414.27,-72.41C418.97,-64.19 424.76,-54.06 430.02,-44.85"/>
<polygon fill="black" stroke="black" points="432.98,-46.72 434.91,-36.3 426.91,-43.25 432.98,-46.72"/>
</g>
<!-- liblzma -->
<g id="node12" class="node">
<title>liblzma</title>
<ellipse fill="none" stroke="black" cx="528.79" cy="-18" rx="39.07" ry="18"/>
<text text-anchor="middle" x="528.79" y="-12.95" font-family="Times,serif" font-size="14.00">liblzma</text>
</g>
<!-- libtiff&#45;&gt;liblzma -->
<g id="edge13" class="edge">
<title>libtiff&#45;&gt;liblzma</title>
<path fill="none" stroke="black" d="M426.68,-76.65C445.64,-65.94 473.39,-50.28 495.17,-37.98"/>
<polygon fill="black" stroke="black" points="496.71,-41.13 503.7,-33.17 493.27,-35.04 496.71,-41.13"/>
</g>
<!-- libnghttp2 -->
<g id="node7" class="node">
<title>libnghttp2</title>
<ellipse fill="none" stroke="black" cx="48.79" cy="-18" rx="48.79" ry="18"/>
<text text-anchor="middle" x="48.79" y="-12.95" font-family="Times,serif" font-size="14.00">libnghttp2</text>
</g>
<!-- libcurl&#45;&gt;libnghttp2 -->
<g id="edge6" class="edge">
<title>libcurl&#45;&gt;libnghttp2</title>
<path fill="none" stroke="black" d="M267.99,-78.04C262.35,-75.9 256.41,-73.78 250.79,-72 187.9,-52.07 170.46,-53.28 106.79,-36 103.51,-35.11 100.12,-34.17 96.71,-33.21"/>
<polygon fill="black" stroke="black" points="97.89,-29.91 87.31,-30.52 95.97,-36.64 97.89,-29.91"/>
</g>
<!-- libopenssl -->
<g id="node8" class="node">
<title>libopenssl</title>
<ellipse fill="none" stroke="black" cx="163.79" cy="-18" rx="48.28" ry="18"/>
<text text-anchor="middle" x="163.79" y="-12.95" font-family="Times,serif" font-size="14.00">libopenssl</text>
</g>
<!-- libcurl&#45;&gt;libopenssl -->
<g id="edge7" class="edge">
<title>libcurl&#45;&gt;libopenssl</title>
<path fill="none" stroke="black" d="M271.07,-76.32C251.38,-65.8 223.04,-50.66 200.43,-38.58"/>
<polygon fill="black" stroke="black" points="202.3,-35.61 191.83,-33.98 199,-41.78 202.3,-35.61"/>
</g>
<!-- libbrotli -->
<g id="node9" class="node">
<title>libbrotli</title>
<ellipse fill="none" stroke="black" cx="270.79" cy="-18" rx="40.6" ry="18"/>
<text text-anchor="middle" x="270.79" y="-12.95" font-family="Times,serif" font-size="14.00">libbrotli</text>
</g>
<!-- libcurl&#45;&gt;libbrotli -->
<g id="edge8" class="edge">
<title>libcurl&#45;&gt;libbrotli</title>
<path fill="none" stroke="black" d="M288.98,-72.05C286.4,-64.52 283.28,-55.44 280.37,-46.94"/>
<polygon fill="black" stroke="black" points="283.76,-46.03 277.21,-37.71 277.14,-48.3 283.76,-46.03"/>
</g>
<!-- libcurl&#45;&gt;libzstd -->
<g id="edge9" class="edge">
<title>libcurl&#45;&gt;libzstd</title>
<path fill="none" stroke="black" d="M310.33,-73.46C319.39,-64.4 331.01,-52.79 341.18,-42.61"/>
<polygon fill="black" stroke="black" points="343.63,-45.11 348.23,-35.56 338.68,-40.16 343.63,-45.11"/>
</g>
<!-- libcurl&#45;&gt;libz -->
<g id="edge10" class="edge">
<title>libcurl&#45;&gt;libz</title>
<path fill="none" stroke="black" d="M320.17,-77.26C343.28,-66.54 378.36,-50.26 408.79,-36 410.09,-35.39 411.42,-34.77 412.77,-34.14"/>
<polygon fill="black" stroke="black" points="414.17,-37.34 421.73,-29.91 411.19,-31.01 414.17,-37.34"/>
</g>
</g>
</svg>
