<?xml version="1.0" encoding="UTF-8" standalone="no"?>
<!DOCTYPE svg PUBLIC "-//W3C//DTD SVG 1.1//EN"
 "http://www.w3.org/Graphics/SVG/1.1/DTD/svg11.dtd">
<!-- Generated by graphviz version 11.0.0 (0)
 -->
<!-- Title: G Pages: 1 -->
<svg width="1201pt" height="476pt"
 viewBox="0.00 0.00 1201.32 476.00" xmlns="http://www.w3.org/2000/svg" xmlns:xlink="http://www.w3.org/1999/xlink">
<g id="graph0" class="graph" transform="scale(1 1) rotate(0) translate(4 472)">
<title>G</title>
<polygon fill="white" stroke="none" points="-4,4 -4,-472 1197.32,-472 1197.32,4 -4,4"/>
<!-- libtesseract -->
<g id="node1" class="node">
<title>libtesseract</title>
<ellipse fill="none" stroke="black" cx="770.88" cy="-450" rx="52.38" ry="18"/>
<text text-anchor="middle" x="770.88" y="-444.95" font-family="Times,serif" font-size="14.00">libtesseract</text>
</g>
<!-- libleptonica -->
<g id="node2" class="node">
<title>libleptonica</title>
<ellipse fill="none" stroke="black" cx="368.88" cy="-162" rx="54.42" ry="18"/>
<text text-anchor="middle" x="368.88" y="-156.95" font-family="Times,serif" font-size="14.00">libleptonica</text>
</g>
<!-- libtesseract&#45;&gt;libleptonica -->
<g id="edge1" class="edge">
<title>libtesseract&#45;&gt;libleptonica</title>
<path fill="none" stroke="black" d="M745.72,-433.96C693.33,-402.32 569.3,-325.69 471.88,-252 444.62,-231.38 415.3,-205.66 394.93,-187.18"/>
<polygon fill="black" stroke="black" points="397.38,-184.67 387.64,-180.51 392.66,-189.84 397.38,-184.67"/>
</g>
<!-- pango -->
<g id="node3" class="node">
<title>pango</title>
<ellipse fill="none" stroke="black" cx="770.88" cy="-378" rx="33.44" ry="18"/>
<text text-anchor="middle" x="770.88" y="-372.95" font-family="Times,serif" font-size="14.00">pango</text>
</g>
<!-- libtesseract&#45;&gt;pango -->
<g id="edge2" class="edge">
<title>libtesseract&#45;&gt;pango</title>
<path fill="none" stroke="black" d="M770.88,-431.7C770.88,-424.41 770.88,-415.73 770.88,-407.54"/>
<polygon fill="black" stroke="black" points="774.38,-407.62 770.88,-397.62 767.38,-407.62 774.38,-407.62"/>
</g>
<!-- cpu_features -->
<g id="node4" class="node">
<title>cpu_features</title>
<ellipse fill="none" stroke="black" cx="879.88" cy="-378" rx="58" ry="18"/>
<text text-anchor="middle" x="879.88" y="-372.95" font-family="Times,serif" font-size="14.00">cpu_features</text>
</g>
<!-- libtesseract&#45;&gt;cpu_features -->
<g id="edge3" class="edge">
<title>libtesseract&#45;&gt;cpu_features</title>
<path fill="none" stroke="black" d="M794.8,-433.64C809.89,-423.95 829.6,-411.29 846.25,-400.6"/>
<polygon fill="black" stroke="black" points="847.84,-403.73 854.36,-395.39 844.06,-397.84 847.84,-403.73"/>
</g>
<!-- libpng -->
<g id="node14" class="node">
<title>libpng</title>
<ellipse fill="none" stroke="black" cx="556.88" cy="-90" rx="34.46" ry="18"/>
<text text-anchor="middle" x="556.88" y="-84.95" font-family="Times,serif" font-size="14.00">libpng</text>
</g>
<!-- libleptonica&#45;&gt;libpng -->
<g id="edge41" class="edge">
<title>libleptonica&#45;&gt;libpng</title>
<path fill="none" stroke="black" d="M405.03,-148.08C434.42,-137.51 476.93,-122.05 513.88,-108 515.68,-107.31 517.53,-106.61 519.39,-105.89"/>
<polygon fill="black" stroke="black" points="520.63,-109.16 528.67,-102.27 518.09,-102.64 520.63,-109.16"/>
</g>
<!-- libgif -->
<g id="node25" class="node">
<title>libgif</title>
<ellipse fill="none" stroke="black" cx="30.88" cy="-90" rx="30.88" ry="18"/>
<text text-anchor="middle" x="30.88" y="-84.95" font-family="Times,serif" font-size="14.00">libgif</text>
</g>
<!-- libleptonica&#45;&gt;libgif -->
<g id="edge42" class="edge">
<title>libleptonica&#45;&gt;libgif</title>
<path fill="none" stroke="black" d="M317.5,-155.63C257.24,-148.47 154.79,-133.64 69.88,-108 68.08,-107.46 66.25,-106.85 64.42,-106.21"/>
<polygon fill="black" stroke="black" points="66.05,-103.09 55.46,-102.71 63.51,-109.61 66.05,-103.09"/>
</g>
<!-- libtiff -->
<g id="node26" class="node">
<title>libtiff</title>
<ellipse fill="none" stroke="black" cx="472.88" cy="-90" rx="31.9" ry="18"/>
<text text-anchor="middle" x="472.88" y="-84.95" font-family="Times,serif" font-size="14.00">libtiff</text>
</g>
<!-- libleptonica&#45;&gt;libtiff -->
<g id="edge43" class="edge">
<title>libleptonica&#45;&gt;libtiff</title>
<path fill="none" stroke="black" d="M392.22,-145.29C407.54,-134.98 427.68,-121.42 444.01,-110.43"/>
<polygon fill="black" stroke="black" points="445.52,-113.64 451.86,-105.15 441.61,-107.83 445.52,-113.64"/>
</g>
<!-- libwebp -->
<g id="node27" class="node">
<title>libwebp</title>
<ellipse fill="none" stroke="black" cx="119.88" cy="-90" rx="40.6" ry="18"/>
<text text-anchor="middle" x="119.88" y="-84.95" font-family="Times,serif" font-size="14.00">libwebp</text>
</g>
<!-- libleptonica&#45;&gt;libwebp -->
<g id="edge44" class="edge">
<title>libleptonica&#45;&gt;libwebp</title>
<path fill="none" stroke="black" d="M326.33,-150.55C285.88,-140.41 223.43,-124.22 169.88,-108 167.19,-107.19 164.43,-106.32 161.66,-105.44"/>
<polygon fill="black" stroke="black" points="163.01,-102.2 152.42,-102.41 160.83,-108.85 163.01,-102.2"/>
</g>
<!-- libjpeg&#45;turbo -->
<g id="node28" class="node">
<title>libjpeg&#45;turbo</title>
<ellipse fill="none" stroke="black" cx="237.88" cy="-90" rx="59.03" ry="18"/>
<text text-anchor="middle" x="237.88" y="-84.95" font-family="Times,serif" font-size="14.00">libjpeg&#45;turbo</text>
</g>
<!-- libleptonica&#45;&gt;libjpeg&#45;turbo -->
<g id="edge45" class="edge">
<title>libleptonica&#45;&gt;libjpeg&#45;turbo</title>
<path fill="none" stroke="black" d="M341.1,-146.15C322.21,-136.06 296.97,-122.58 276.18,-111.46"/>
<polygon fill="black" stroke="black" points="277.88,-108.4 267.41,-106.78 274.58,-114.58 277.88,-108.4"/>
</g>
<!-- libopenjpeg -->
<g id="node29" class="node">
<title>libopenjpeg</title>
<ellipse fill="none" stroke="black" cx="368.88" cy="-90" rx="54.42" ry="18"/>
<text text-anchor="middle" x="368.88" y="-84.95" font-family="Times,serif" font-size="14.00">libopenjpeg</text>
</g>
<!-- libleptonica&#45;&gt;libopenjpeg -->
<g id="edge46" class="edge">
<title>libleptonica&#45;&gt;libopenjpeg</title>
<path fill="none" stroke="black" d="M368.88,-143.7C368.88,-136.41 368.88,-127.73 368.88,-119.54"/>
<polygon fill="black" stroke="black" points="372.38,-119.62 368.88,-109.62 365.38,-119.62 372.38,-119.62"/>
</g>
<!-- cairo -->
<g id="node5" class="node">
<title>cairo</title>
<ellipse fill="none" stroke="black" cx="730.88" cy="-306" rx="29.34" ry="18"/>
<text text-anchor="middle" x="730.88" y="-300.95" font-family="Times,serif" font-size="14.00">cairo</text>
</g>
<!-- pango&#45;&gt;cairo -->
<g id="edge4" class="edge">
<title>pango&#45;&gt;cairo</title>
<path fill="none" stroke="black" d="M761.4,-360.41C756.77,-352.3 751.08,-342.35 745.88,-333.25"/>
<polygon fill="black" stroke="black" points="749.04,-331.73 741.04,-324.78 742.96,-335.2 749.04,-331.73"/>
</g>
<!-- fribidi -->
<g id="node6" class="node">
<title>fribidi</title>
<ellipse fill="none" stroke="black" cx="811.88" cy="-306" rx="33.95" ry="18"/>
<text text-anchor="middle" x="811.88" y="-300.95" font-family="Times,serif" font-size="14.00">fribidi</text>
</g>
<!-- pango&#45;&gt;fribidi -->
<g id="edge5" class="edge">
<title>pango&#45;&gt;fribidi</title>
<path fill="none" stroke="black" d="M780.6,-360.41C785.34,-352.3 791.17,-342.35 796.51,-333.25"/>
<polygon fill="black" stroke="black" points="799.43,-335.17 801.47,-324.78 793.39,-331.64 799.43,-335.17"/>
</g>
<!-- libharfbuzz -->
<g id="node7" class="node">
<title>libharfbuzz</title>
<ellipse fill="none" stroke="black" cx="957.88" cy="-306" rx="52.89" ry="18"/>
<text text-anchor="middle" x="957.88" y="-300.95" font-family="Times,serif" font-size="14.00">libharfbuzz</text>
</g>
<!-- pango&#45;&gt;libharfbuzz -->
<g id="edge6" class="edge">
<title>pango&#45;&gt;libharfbuzz</title>
<path fill="none" stroke="black" d="M797.04,-366.25C802.27,-364.15 807.74,-361.98 812.88,-360 845.82,-347.32 883.23,-333.66 911.81,-323.39"/>
<polygon fill="black" stroke="black" points="912.64,-326.81 920.87,-320.13 910.28,-320.22 912.64,-326.81"/>
</g>
<!-- glib -->
<g id="node9" class="node">
<title>glib</title>
<ellipse fill="none" stroke="black" cx="957.88" cy="-234" rx="27" ry="18"/>
<text text-anchor="middle" x="957.88" y="-228.95" font-family="Times,serif" font-size="14.00">glib</text>
</g>
<!-- cairo&#45;&gt;glib -->
<g id="edge20" class="edge">
<title>cairo&#45;&gt;glib</title>
<path fill="none" stroke="black" d="M753.56,-294.2C758.55,-292.01 763.85,-289.82 768.88,-288 820.86,-269.2 882.86,-252.94 921.3,-243.56"/>
<polygon fill="black" stroke="black" points="922.07,-246.97 930.97,-241.22 920.42,-240.17 922.07,-246.97"/>
</g>
<!-- cairo&#45;&gt;libpng -->
<g id="edge21" class="edge">
<title>cairo&#45;&gt;libpng</title>
<path fill="none" stroke="black" d="M701.89,-302.63C645.35,-297.36 523.52,-282.65 496.88,-252 465.34,-215.72 470.09,-187.35 490.88,-144 497.76,-129.64 510.65,-117.94 523.22,-109.22"/>
<polygon fill="black" stroke="black" points="524.88,-112.31 531.39,-103.96 521.09,-106.43 524.88,-112.31"/>
</g>
<!-- libfontconfig -->
<g id="node20" class="node">
<title>libfontconfig</title>
<ellipse fill="none" stroke="black" cx="564.88" cy="-234" rx="59.03" ry="18"/>
<text text-anchor="middle" x="564.88" y="-228.95" font-family="Times,serif" font-size="14.00">libfontconfig</text>
</g>
<!-- cairo&#45;&gt;libfontconfig -->
<g id="edge22" class="edge">
<title>cairo&#45;&gt;libfontconfig</title>
<path fill="none" stroke="black" d="M707.1,-294.97C681.48,-284.17 640.17,-266.75 608.66,-253.46"/>
<polygon fill="black" stroke="black" points="610.35,-250.38 599.78,-249.72 607.63,-256.83 610.35,-250.38"/>
</g>
<!-- libxml2 -->
<g id="node21" class="node">
<title>libxml2</title>
<ellipse fill="none" stroke="black" cx="796.88" cy="-162" rx="40.09" ry="18"/>
<text text-anchor="middle" x="796.88" y="-156.95" font-family="Times,serif" font-size="14.00">libxml2</text>
</g>
<!-- cairo&#45;&gt;libxml2 -->
<g id="edge23" class="edge">
<title>cairo&#45;&gt;libxml2</title>
<path fill="none" stroke="black" d="M753.73,-294.42C781.86,-281.18 826.47,-259.32 830.88,-252 843.01,-231.85 831.17,-206.62 818.25,-188.17"/>
<polygon fill="black" stroke="black" points="821.23,-186.31 812.42,-180.42 815.63,-190.52 821.23,-186.31"/>
</g>
<!-- libpixman -->
<g id="node22" class="node">
<title>libpixman</title>
<ellipse fill="none" stroke="black" cx="690.88" cy="-234" rx="48.79" ry="18"/>
<text text-anchor="middle" x="690.88" y="-228.95" font-family="Times,serif" font-size="14.00">libpixman</text>
</g>
<!-- cairo&#45;&gt;libpixman -->
<g id="edge24" class="edge">
<title>cairo&#45;&gt;libpixman</title>
<path fill="none" stroke="black" d="M721.6,-288.76C717.04,-280.78 711.42,-270.95 706.24,-261.89"/>
<polygon fill="black" stroke="black" points="709.42,-260.38 701.42,-253.44 703.34,-263.86 709.42,-260.38"/>
</g>
<!-- liblzo -->
<g id="node23" class="node">
<title>liblzo</title>
<ellipse fill="none" stroke="black" cx="789.88" cy="-234" rx="31.9" ry="18"/>
<text text-anchor="middle" x="789.88" y="-228.95" font-family="Times,serif" font-size="14.00">liblzo</text>
</g>
<!-- cairo&#45;&gt;liblzo -->
<g id="edge25" class="edge">
<title>cairo&#45;&gt;liblzo</title>
<path fill="none" stroke="black" d="M743.97,-289.46C751.46,-280.58 761.01,-269.25 769.46,-259.22"/>
<polygon fill="black" stroke="black" points="772.08,-261.55 775.85,-251.65 766.73,-257.04 772.08,-261.55"/>
</g>
<!-- icu4c -->
<g id="node8" class="node">
<title>icu4c</title>
<ellipse fill="none" stroke="black" cx="1033.88" cy="-234" rx="30.88" ry="18"/>
<text text-anchor="middle" x="1033.88" y="-228.95" font-family="Times,serif" font-size="14.00">icu4c</text>
</g>
<!-- libharfbuzz&#45;&gt;icu4c -->
<g id="edge7" class="edge">
<title>libharfbuzz&#45;&gt;icu4c</title>
<path fill="none" stroke="black" d="M975.51,-288.76C985.61,-279.46 998.44,-267.64 1009.5,-257.46"/>
<polygon fill="black" stroke="black" points="1011.8,-260.09 1016.79,-250.74 1007.06,-254.94 1011.8,-260.09"/>
</g>
<!-- libharfbuzz&#45;&gt;glib -->
<g id="edge8" class="edge">
<title>libharfbuzz&#45;&gt;glib</title>
<path fill="none" stroke="black" d="M957.88,-287.7C957.88,-280.41 957.88,-271.73 957.88,-263.54"/>
<polygon fill="black" stroke="black" points="961.38,-263.62 957.88,-253.62 954.38,-263.62 961.38,-263.62"/>
</g>
<!-- libfreetype -->
<g id="node10" class="node">
<title>libfreetype</title>
<ellipse fill="none" stroke="black" cx="649.88" cy="-162" rx="50.84" ry="18"/>
<text text-anchor="middle" x="649.88" y="-156.95" font-family="Times,serif" font-size="14.00">libfreetype</text>
</g>
<!-- libharfbuzz&#45;&gt;libfreetype -->
<g id="edge9" class="edge">
<title>libharfbuzz&#45;&gt;libfreetype</title>
<path fill="none" stroke="black" d="M939.31,-289.02C915.6,-269.34 872.62,-236.06 830.88,-216 790.36,-196.52 741.24,-182.69 704.4,-174.06"/>
<polygon fill="black" stroke="black" points="705.39,-170.69 694.86,-171.88 703.83,-177.52 705.39,-170.69"/>
</g>
<!-- libgraphite2 -->
<g id="node11" class="node">
<title>libgraphite2</title>
<ellipse fill="none" stroke="black" cx="1137.88" cy="-234" rx="55.45" ry="18"/>
<text text-anchor="middle" x="1137.88" y="-228.95" font-family="Times,serif" font-size="14.00">libgraphite2</text>
</g>
<!-- libharfbuzz&#45;&gt;libgraphite2 -->
<g id="edge10" class="edge">
<title>libharfbuzz&#45;&gt;libgraphite2</title>
<path fill="none" stroke="black" d="M991.74,-291.83C1020.25,-280.74 1061.28,-264.79 1092.61,-252.6"/>
<polygon fill="black" stroke="black" points="1093.79,-255.9 1101.84,-249.01 1091.26,-249.38 1093.79,-255.9"/>
</g>
<!-- libz -->
<g id="node15" class="node">
<title>libz</title>
<ellipse fill="none" stroke="black" cx="556.88" cy="-18" rx="27" ry="18"/>
<text text-anchor="middle" x="556.88" y="-12.95" font-family="Times,serif" font-size="14.00">libz</text>
</g>
<!-- glib&#45;&gt;libz -->
<g id="edge15" class="edge">
<title>glib&#45;&gt;libz</title>
<path fill="none" stroke="black" d="M955.25,-215.69C955.06,-182.54 957.75,-110 917.88,-72 871.82,-28.1 679.21,-20.36 595.64,-19.14"/>
<polygon fill="black" stroke="black" points="595.69,-15.64 585.65,-19.02 595.61,-22.64 595.69,-15.64"/>
</g>
<!-- glib&#45;&gt;libz -->
<g id="edge36" class="edge">
<title>glib&#45;&gt;libz</title>
<path fill="none" stroke="black" d="M965.36,-216.2C973.03,-183.29 975.95,-110.2 935.88,-72 888.1,-26.46 682.61,-19.83 595.72,-19.03"/>
<polygon fill="black" stroke="black" points="595.81,-15.53 585.78,-18.96 595.76,-22.53 595.81,-15.53"/>
</g>
<!-- libpcre2 -->
<g id="node16" class="node">
<title>libpcre2</title>
<ellipse fill="none" stroke="black" cx="1111.88" cy="-162" rx="41.12" ry="18"/>
<text text-anchor="middle" x="1111.88" y="-156.95" font-family="Times,serif" font-size="14.00">libpcre2</text>
</g>
<!-- glib&#45;&gt;libpcre2 -->
<g id="edge16" class="edge">
<title>glib&#45;&gt;libpcre2</title>
<path fill="none" stroke="black" d="M976.03,-220.13C978.98,-218.73 981.99,-217.33 984.88,-216 1012.95,-203.07 1044.95,-188.72 1069.93,-178.22"/>
<polygon fill="black" stroke="black" points="1071.23,-181.47 1079.13,-174.41 1068.55,-175 1071.23,-181.47"/>
</g>
<!-- glib&#45;&gt;libpcre2 -->
<g id="edge37" class="edge">
<title>glib&#45;&gt;libpcre2</title>
<path fill="none" stroke="black" d="M981.98,-225.49C988.91,-222.51 996.22,-219.07 1002.88,-216 1027.83,-204.51 1055.88,-191.89 1077.39,-181.86"/>
<polygon fill="black" stroke="black" points="1078.76,-185.08 1086.31,-177.65 1075.78,-178.75 1078.76,-185.08"/>
</g>
<!-- libintl -->
<g id="node17" class="node">
<title>libintl</title>
<ellipse fill="none" stroke="black" cx="887.88" cy="-162" rx="32.93" ry="18"/>
<text text-anchor="middle" x="887.88" y="-156.95" font-family="Times,serif" font-size="14.00">libintl</text>
</g>
<!-- glib&#45;&gt;libintl -->
<g id="edge17" class="edge">
<title>glib&#45;&gt;libintl</title>
<path fill="none" stroke="black" d="M939.68,-220.16C929.32,-211.13 916.57,-198.75 906.21,-187.83"/>
<polygon fill="black" stroke="black" points="908.89,-185.56 899.54,-180.58 903.74,-190.31 908.89,-185.56"/>
</g>
<!-- glib&#45;&gt;libintl -->
<g id="edge38" class="edge">
<title>glib&#45;&gt;libintl</title>
<path fill="none" stroke="black" d="M947.76,-217.12C939.22,-207.47 926.96,-195.04 915.68,-184.52"/>
<polygon fill="black" stroke="black" points="918.2,-182.08 908.44,-177.94 913.49,-187.26 918.2,-182.08"/>
</g>
<!-- libffi -->
<g id="node18" class="node">
<title>libffi</title>
<ellipse fill="none" stroke="black" cx="1023.88" cy="-162" rx="29.34" ry="18"/>
<text text-anchor="middle" x="1023.88" y="-156.95" font-family="Times,serif" font-size="14.00">libffi</text>
</g>
<!-- glib&#45;&gt;libffi -->
<g id="edge18" class="edge">
<title>glib&#45;&gt;libffi</title>
<path fill="none" stroke="black" d="M967.39,-216.76C975.43,-207.08 986.98,-194.67 997.62,-184.21"/>
<polygon fill="black" stroke="black" points="999.96,-186.81 1004.78,-177.38 995.13,-181.75 999.96,-186.81"/>
</g>
<!-- glib&#45;&gt;libffi -->
<g id="edge39" class="edge">
<title>glib&#45;&gt;libffi</title>
<path fill="none" stroke="black" d="M975.35,-220.16C985.09,-211.22 996.99,-199 1006.67,-188.15"/>
<polygon fill="black" stroke="black" points="1009.3,-190.46 1013.19,-180.61 1004,-185.89 1009.3,-190.46"/>
</g>
<!-- libbrotli -->
<g id="node12" class="node">
<title>libbrotli</title>
<ellipse fill="none" stroke="black" cx="649.88" cy="-90" rx="40.6" ry="18"/>
<text text-anchor="middle" x="649.88" y="-84.95" font-family="Times,serif" font-size="14.00">libbrotli</text>
</g>
<!-- libfreetype&#45;&gt;libbrotli -->
<g id="edge11" class="edge">
<title>libfreetype&#45;&gt;libbrotli</title>
<path fill="none" stroke="black" d="M643.96,-143.7C643.21,-136.41 642.97,-127.73 643.23,-119.54"/>
<polygon fill="black" stroke="black" points="646.72,-119.82 643.88,-109.61 639.74,-119.36 646.72,-119.82"/>
</g>
<!-- libfreetype&#45;&gt;libbrotli -->
<g id="edge32" class="edge">
<title>libfreetype&#45;&gt;libbrotli</title>
<path fill="none" stroke="black" d="M655.79,-143.7C656.55,-136.41 656.79,-127.73 656.53,-119.54"/>
<polygon fill="black" stroke="black" points="660.02,-119.36 655.87,-109.61 653.04,-119.82 660.02,-119.36"/>
</g>
<!-- libbz2 -->
<g id="node13" class="node">
<title>libbz2</title>
<ellipse fill="none" stroke="black" cx="742.88" cy="-90" rx="33.95" ry="18"/>
<text text-anchor="middle" x="742.88" y="-84.95" font-family="Times,serif" font-size="14.00">libbz2</text>
</g>
<!-- libfreetype&#45;&gt;libbz2 -->
<g id="edge12" class="edge">
<title>libfreetype&#45;&gt;libbz2</title>
<path fill="none" stroke="black" d="M665.65,-144.76C678.18,-134.46 695.86,-121.08 711.21,-110.25"/>
<polygon fill="black" stroke="black" points="712.93,-113.31 719.15,-104.74 708.94,-107.56 712.93,-113.31"/>
</g>
<!-- libfreetype&#45;&gt;libbz2 -->
<g id="edge33" class="edge">
<title>libfreetype&#45;&gt;libbz2</title>
<path fill="none" stroke="black" d="M675.49,-145.98C689.23,-136.52 705.93,-124.12 719.35,-113.49"/>
<polygon fill="black" stroke="black" points="721.28,-116.43 726.85,-107.43 716.88,-110.99 721.28,-116.43"/>
</g>
<!-- libfreetype&#45;&gt;libpng -->
<g id="edge13" class="edge">
<title>libfreetype&#45;&gt;libpng</title>
<path fill="none" stroke="black" d="M624.27,-145.98C610.53,-136.52 593.82,-124.12 580.41,-113.49"/>
<polygon fill="black" stroke="black" points="582.88,-110.99 572.9,-107.43 578.48,-116.43 582.88,-110.99"/>
</g>
<!-- libfreetype&#45;&gt;libpng -->
<g id="edge34" class="edge">
<title>libfreetype&#45;&gt;libpng</title>
<path fill="none" stroke="black" d="M634.11,-144.76C621.58,-134.46 603.9,-121.08 588.55,-110.25"/>
<polygon fill="black" stroke="black" points="590.82,-107.56 580.61,-104.74 586.83,-113.31 590.82,-107.56"/>
</g>
<!-- libpng&#45;&gt;libz -->
<g id="edge14" class="edge">
<title>libpng&#45;&gt;libz</title>
<path fill="none" stroke="black" d="M539.97,-74.15C536.6,-65.17 535.78,-53.51 537.51,-43.22"/>
<polygon fill="black" stroke="black" points="540.8,-44.43 540.14,-33.86 534.06,-42.54 540.8,-44.43"/>
</g>
<!-- libpng&#45;&gt;libz -->
<g id="edge26" class="edge">
<title>libpng&#45;&gt;libz</title>
<path fill="none" stroke="black" d="M551,-72.05C550.21,-64.57 549.96,-55.58 550.25,-47.14"/>
<polygon fill="black" stroke="black" points="553.73,-47.51 550.91,-37.3 546.74,-47.04 553.73,-47.51"/>
</g>
<!-- libpng&#45;&gt;libz -->
<g id="edge35" class="edge">
<title>libpng&#45;&gt;libz</title>
<path fill="none" stroke="black" d="M562.76,-72.05C563.55,-64.57 563.8,-55.58 563.51,-47.14"/>
<polygon fill="black" stroke="black" points="567.01,-47.04 562.84,-37.3 560.03,-47.51 567.01,-47.04"/>
</g>
<!-- libpng&#45;&gt;libz -->
<g id="edge50" class="edge">
<title>libpng&#45;&gt;libz</title>
<path fill="none" stroke="black" d="M573.79,-74.15C577.16,-65.17 577.98,-53.51 576.25,-43.22"/>
<polygon fill="black" stroke="black" points="579.7,-42.54 573.62,-33.86 572.96,-44.43 579.7,-42.54"/>
</g>
<!-- libiconv -->
<g id="node19" class="node">
<title>libiconv</title>
<ellipse fill="none" stroke="black" cx="876.88" cy="-90" rx="41.12" ry="18"/>
<text text-anchor="middle" x="876.88" y="-84.95" font-family="Times,serif" font-size="14.00">libiconv</text>
</g>
<!-- libintl&#45;&gt;libiconv -->
<g id="edge19" class="edge">
<title>libintl&#45;&gt;libiconv</title>
<path fill="none" stroke="black" d="M879.43,-144.41C877.44,-136.94 875.75,-127.9 874.7,-119.4"/>
<polygon fill="black" stroke="black" points="878.19,-119.11 873.8,-109.46 871.22,-119.74 878.19,-119.11"/>
</g>
<!-- libintl&#45;&gt;libiconv -->
<g id="edge40" class="edge">
<title>libintl&#45;&gt;libiconv</title>
<path fill="none" stroke="black" d="M891.08,-143.7C890.67,-136.13 889.47,-127.06 887.83,-118.59"/>
<polygon fill="black" stroke="black" points="891.3,-118.07 885.67,-109.1 884.47,-119.63 891.3,-118.07"/>
</g>
<!-- libfontconfig&#45;&gt;libfreetype -->
<g id="edge29" class="edge">
<title>libfontconfig&#45;&gt;libfreetype</title>
<path fill="none" stroke="black" d="M584.59,-216.76C595.61,-207.69 609.54,-196.22 621.69,-186.21"/>
<polygon fill="black" stroke="black" points="623.9,-188.93 629.4,-179.87 619.45,-183.52 623.9,-188.93"/>
</g>
<!-- libfontconfig&#45;&gt;libiconv -->
<g id="edge30" class="edge">
<title>libfontconfig&#45;&gt;libiconv</title>
<path fill="none" stroke="black" d="M609.51,-221.82C639.33,-213.15 678.66,-199.33 709.88,-180 729.66,-167.75 728.34,-156.63 747.88,-144 774.21,-126.97 806.91,-113.61 832.8,-104.56"/>
<polygon fill="black" stroke="black" points="833.66,-107.96 842.01,-101.44 831.41,-101.34 833.66,-107.96"/>
</g>
<!-- libexpat -->
<g id="node24" class="node">
<title>libexpat</title>
<ellipse fill="none" stroke="black" cx="540.88" cy="-162" rx="40.6" ry="18"/>
<text text-anchor="middle" x="540.88" y="-156.95" font-family="Times,serif" font-size="14.00">libexpat</text>
</g>
<!-- libfontconfig&#45;&gt;libexpat -->
<g id="edge31" class="edge">
<title>libfontconfig&#45;&gt;libexpat</title>
<path fill="none" stroke="black" d="M558.95,-215.7C556.39,-208.24 553.33,-199.32 550.47,-190.97"/>
<polygon fill="black" stroke="black" points="553.79,-189.86 547.23,-181.54 547.17,-192.13 553.79,-189.86"/>
</g>
<!-- libxml2&#45;&gt;libz -->
<g id="edge27" class="edge">
<title>libxml2&#45;&gt;libz</title>
<path fill="none" stroke="black" d="M800.08,-143.57C802.65,-123.69 803.38,-91.44 785.88,-72 760.78,-44.13 653.64,-28.96 595.23,-22.62"/>
<polygon fill="black" stroke="black" points="595.71,-19.15 585.4,-21.59 594.98,-26.11 595.71,-19.15"/>
</g>
<!-- libxml2&#45;&gt;libiconv -->
<g id="edge28" class="edge">
<title>libxml2&#45;&gt;libiconv</title>
<path fill="none" stroke="black" d="M814.63,-145.46C825.2,-136.22 838.8,-124.32 850.59,-114"/>
<polygon fill="black" stroke="black" points="852.81,-116.71 858.04,-107.49 848.2,-111.44 852.81,-116.71"/>
</g>
<!-- libtiff&#45;&gt;libz -->
<g id="edge47" class="edge">
<title>libtiff&#45;&gt;libz</title>
<path fill="none" stroke="black" d="M490.28,-74.5C502.23,-64.54 518.28,-51.17 531.63,-40.04"/>
<polygon fill="black" stroke="black" points="533.75,-42.83 539.19,-33.74 529.27,-37.45 533.75,-42.83"/>
</g>
<!-- libzstd -->
<g id="node30" class="node">
<title>libzstd</title>
<ellipse fill="none" stroke="black" cx="379.88" cy="-18" rx="35.49" ry="18"/>
<text text-anchor="middle" x="379.88" y="-12.95" font-family="Times,serif" font-size="14.00">libzstd</text>
</g>
<!-- libtiff&#45;&gt;libzstd -->
<g id="edge48" class="edge">
<title>libtiff&#45;&gt;libzstd</title>
<path fill="none" stroke="black" d="M454.51,-75.17C441.27,-65.21 423.16,-51.57 408.09,-40.23"/>
<polygon fill="black" stroke="black" points="410.48,-37.65 400.38,-34.43 406.27,-43.24 410.48,-37.65"/>
</g>
<!-- liblzma -->
<g id="node31" class="node">
<title>liblzma</title>
<ellipse fill="none" stroke="black" cx="472.88" cy="-18" rx="39.07" ry="18"/>
<text text-anchor="middle" x="472.88" y="-12.95" font-family="Times,serif" font-size="14.00">liblzma</text>
</g>
<!-- libtiff&#45;&gt;liblzma -->
<g id="edge49" class="edge">
<title>libtiff&#45;&gt;liblzma</title>
<path fill="none" stroke="black" d="M472.88,-71.7C472.88,-64.41 472.88,-55.73 472.88,-47.54"/>
<polygon fill="black" stroke="black" points="476.38,-47.62 472.88,-37.62 469.38,-47.62 476.38,-47.62"/>
</g>
</g>
</svg>
