<?xml version="1.0" encoding="UTF-8" standalone="no"?>
<!DOCTYPE svg PUBLIC "-//W3C//DTD SVG 1.1//EN"
 "http://www.w3.org/Graphics/SVG/1.1/DTD/svg11.dtd">
<!-- Generated by graphviz version 11.0.0 (0)
 -->
<!-- Title: G Pages: 1 -->
<svg width="870pt" height="188pt"
 viewBox="0.00 0.00 869.51 188.00" xmlns="http://www.w3.org/2000/svg" xmlns:xlink="http://www.w3.org/1999/xlink">
<g id="graph0" class="graph" transform="scale(1 1) rotate(0) translate(4 184)">
<title>G</title>
<polygon fill="white" stroke="none" points="-4,4 -4,-184 865.51,-184 865.51,4 -4,4"/>
<!-- opencolorio -->
<g id="node1" class="node">
<title>opencolorio</title>
<ellipse fill="none" stroke="black" cx="423.65" cy="-162" rx="54.93" ry="18"/>
<text text-anchor="middle" x="423.65" y="-156.95" font-family="Times,serif" font-size="14.00">opencolorio</text>
</g>
<!-- libopenexr -->
<g id="node2" class="node">
<title>libopenexr</title>
<ellipse fill="none" stroke="black" cx="95.65" cy="-90" rx="50.33" ry="18"/>
<text text-anchor="middle" x="95.65" y="-84.95" font-family="Times,serif" font-size="14.00">libopenexr</text>
</g>
<!-- opencolorio&#45;&gt;libopenexr -->
<g id="edge1" class="edge">
<title>opencolorio&#45;&gt;libopenexr</title>
<path fill="none" stroke="black" d="M375.76,-152.85C321.75,-143.36 231.45,-126.59 154.65,-108 151.29,-107.19 147.83,-106.31 144.36,-105.39"/>
<polygon fill="black" stroke="black" points="145.32,-102.02 134.75,-102.77 143.48,-108.78 145.32,-102.02"/>
</g>
<!-- liblcms2 -->
<g id="node3" class="node">
<title>liblcms2</title>
<ellipse fill="none" stroke="black" cx="206.65" cy="-90" rx="43.16" ry="18"/>
<text text-anchor="middle" x="206.65" y="-84.95" font-family="Times,serif" font-size="14.00">liblcms2</text>
</g>
<!-- opencolorio&#45;&gt;liblcms2 -->
<g id="edge2" class="edge">
<title>opencolorio&#45;&gt;liblcms2</title>
<path fill="none" stroke="black" d="M385.29,-148.74C351.84,-138.03 302.01,-122.05 258.65,-108 256.1,-107.17 253.47,-106.32 250.83,-105.46"/>
<polygon fill="black" stroke="black" points="251.96,-102.15 241.37,-102.38 249.79,-108.8 251.96,-102.15"/>
</g>
<!-- libexpat -->
<g id="node4" class="node">
<title>libexpat</title>
<ellipse fill="none" stroke="black" cx="308.65" cy="-90" rx="40.6" ry="18"/>
<text text-anchor="middle" x="308.65" y="-84.95" font-family="Times,serif" font-size="14.00">libexpat</text>
</g>
<!-- opencolorio&#45;&gt;libexpat -->
<g id="edge3" class="edge">
<title>opencolorio&#45;&gt;libexpat</title>
<path fill="none" stroke="black" d="M398.41,-145.64C381.75,-135.5 359.75,-122.11 341.7,-111.12"/>
<polygon fill="black" stroke="black" points="343.53,-108.13 333.17,-105.92 339.89,-114.11 343.53,-108.13"/>
</g>
<!-- libyaml&#45;cpp -->
<g id="node5" class="node">
<title>libyaml&#45;cpp</title>
<ellipse fill="none" stroke="black" cx="423.65" cy="-90" rx="55.96" ry="18"/>
<text text-anchor="middle" x="423.65" y="-84.95" font-family="Times,serif" font-size="14.00">libyaml&#45;cpp</text>
</g>
<!-- opencolorio&#45;&gt;libyaml&#45;cpp -->
<g id="edge4" class="edge">
<title>opencolorio&#45;&gt;libyaml&#45;cpp</title>
<path fill="none" stroke="black" d="M423.65,-143.7C423.65,-136.41 423.65,-127.73 423.65,-119.54"/>
<polygon fill="black" stroke="black" points="427.15,-119.62 423.65,-109.62 420.15,-119.62 427.15,-119.62"/>
</g>
<!-- libpystring -->
<g id="node6" class="node">
<title>libpystring</title>
<ellipse fill="none" stroke="black" cx="548.65" cy="-90" rx="50.84" ry="18"/>
<text text-anchor="middle" x="548.65" y="-84.95" font-family="Times,serif" font-size="14.00">libpystring</text>
</g>
<!-- opencolorio&#45;&gt;libpystring -->
<g id="edge5" class="edge">
<title>opencolorio&#45;&gt;libpystring</title>
<path fill="none" stroke="black" d="M450.47,-145.98C468.55,-135.86 492.62,-122.38 512.41,-111.3"/>
<polygon fill="black" stroke="black" points="513.97,-114.43 520.99,-106.49 510.55,-108.32 513.97,-114.43"/>
</g>
<!-- libminizip&#45;ng -->
<g id="node7" class="node">
<title>libminizip&#45;ng</title>
<ellipse fill="none" stroke="black" cx="678.65" cy="-90" rx="61.59" ry="18"/>
<text text-anchor="middle" x="678.65" y="-84.95" font-family="Times,serif" font-size="14.00">libminizip&#45;ng</text>
</g>
<!-- opencolorio&#45;&gt;libminizip&#45;ng -->
<g id="edge6" class="edge">
<title>opencolorio&#45;&gt;libminizip&#45;ng</title>
<path fill="none" stroke="black" d="M464.9,-149.68C508.1,-137.82 576.15,-119.14 623.84,-106.05"/>
<polygon fill="black" stroke="black" points="624.72,-109.44 633.43,-103.41 622.86,-102.68 624.72,-109.44"/>
</g>
<!-- sse2neon.h -->
<g id="node8" class="node">
<title>sse2neon.h</title>
<ellipse fill="none" stroke="black" cx="809.65" cy="-90" rx="51.86" ry="18"/>
<text text-anchor="middle" x="809.65" y="-84.95" font-family="Times,serif" font-size="14.00">sse2neon.h</text>
</g>
<!-- opencolorio&#45;&gt;sse2neon.h -->
<g id="edge7" class="edge">
<title>opencolorio&#45;&gt;sse2neon.h</title>
<path fill="none" stroke="black" d="M474.26,-154.61C538.64,-146.06 653.09,-129.45 749.65,-108 753.19,-107.21 756.83,-106.34 760.49,-105.42"/>
<polygon fill="black" stroke="black" points="761.17,-108.86 769.94,-102.93 759.38,-102.09 761.17,-108.86"/>
</g>
<!-- libz -->
<g id="node13" class="node">
<title>libz</title>
<ellipse fill="none" stroke="black" cx="368.65" cy="-18" rx="27" ry="18"/>
<text text-anchor="middle" x="368.65" y="-12.95" font-family="Times,serif" font-size="14.00">libz</text>
</g>
<!-- libopenexr&#45;&gt;libz -->
<g id="edge13" class="edge">
<title>libopenexr&#45;&gt;libz</title>
<path fill="none" stroke="black" d="M133.68,-77.81C140.64,-75.83 147.85,-73.82 154.65,-72 216.8,-55.36 289.59,-37.72 332.26,-27.57"/>
<polygon fill="black" stroke="black" points="332.81,-31.04 341.73,-25.32 331.19,-24.23 332.81,-31.04"/>
</g>
<!-- libImath -->
<g id="node14" class="node">
<title>libImath</title>
<ellipse fill="none" stroke="black" cx="42.65" cy="-18" rx="42.65" ry="18"/>
<text text-anchor="middle" x="42.65" y="-12.95" font-family="Times,serif" font-size="14.00">libImath</text>
</g>
<!-- libopenexr&#45;&gt;libImath -->
<g id="edge14" class="edge">
<title>libopenexr&#45;&gt;libImath</title>
<path fill="none" stroke="black" d="M83.09,-72.41C76.75,-64.04 68.93,-53.71 61.86,-44.37"/>
<polygon fill="black" stroke="black" points="64.86,-42.54 56.03,-36.68 59.28,-46.76 64.86,-42.54"/>
</g>
<!-- libdeflate -->
<g id="node15" class="node">
<title>libdeflate</title>
<ellipse fill="none" stroke="black" cx="148.65" cy="-18" rx="45.72" ry="18"/>
<text text-anchor="middle" x="148.65" y="-12.95" font-family="Times,serif" font-size="14.00">libdeflate</text>
</g>
<!-- libopenexr&#45;&gt;libdeflate -->
<g id="edge15" class="edge">
<title>libopenexr&#45;&gt;libdeflate</title>
<path fill="none" stroke="black" d="M108.21,-72.41C114.55,-64.04 122.37,-53.71 129.44,-44.37"/>
<polygon fill="black" stroke="black" points="132.02,-46.76 135.27,-36.68 126.44,-42.54 132.02,-46.76"/>
</g>
<!-- libiconv -->
<g id="node9" class="node">
<title>libiconv</title>
<ellipse fill="none" stroke="black" cx="536.65" cy="-18" rx="41.12" ry="18"/>
<text text-anchor="middle" x="536.65" y="-12.95" font-family="Times,serif" font-size="14.00">libiconv</text>
</g>
<!-- libminizip&#45;ng&#45;&gt;libiconv -->
<g id="edge8" class="edge">
<title>libminizip&#45;ng&#45;&gt;libiconv</title>
<path fill="none" stroke="black" d="M648.19,-73.98C626.28,-63.18 596.63,-48.57 573.41,-37.12"/>
<polygon fill="black" stroke="black" points="575.11,-34.06 564.6,-32.78 572.02,-40.34 575.11,-34.06"/>
</g>
<!-- libzstd -->
<g id="node10" class="node">
<title>libzstd</title>
<ellipse fill="none" stroke="black" cx="631.65" cy="-18" rx="35.49" ry="18"/>
<text text-anchor="middle" x="631.65" y="-12.95" font-family="Times,serif" font-size="14.00">libzstd</text>
</g>
<!-- libminizip&#45;ng&#45;&gt;libzstd -->
<g id="edge9" class="edge">
<title>libminizip&#45;ng&#45;&gt;libzstd</title>
<path fill="none" stroke="black" d="M667.27,-72.05C661.77,-63.85 655.04,-53.83 648.92,-44.71"/>
<polygon fill="black" stroke="black" points="651.92,-42.91 643.44,-36.56 646.11,-46.82 651.92,-42.91"/>
</g>
<!-- liblzma -->
<g id="node11" class="node">
<title>liblzma</title>
<ellipse fill="none" stroke="black" cx="724.65" cy="-18" rx="39.07" ry="18"/>
<text text-anchor="middle" x="724.65" y="-12.95" font-family="Times,serif" font-size="14.00">liblzma</text>
</g>
<!-- libminizip&#45;ng&#45;&gt;liblzma -->
<g id="edge10" class="edge">
<title>libminizip&#45;ng&#45;&gt;liblzma</title>
<path fill="none" stroke="black" d="M689.79,-72.05C695.18,-63.85 701.76,-53.83 707.75,-44.71"/>
<polygon fill="black" stroke="black" points="710.54,-46.85 713.1,-36.57 704.69,-43.01 710.54,-46.85"/>
</g>
<!-- libbz2 -->
<g id="node12" class="node">
<title>libbz2</title>
<ellipse fill="none" stroke="black" cx="815.65" cy="-18" rx="33.95" ry="18"/>
<text text-anchor="middle" x="815.65" y="-12.95" font-family="Times,serif" font-size="14.00">libbz2</text>
</g>
<!-- libminizip&#45;ng&#45;&gt;libbz2 -->
<g id="edge11" class="edge">
<title>libminizip&#45;ng&#45;&gt;libbz2</title>
<path fill="none" stroke="black" d="M708.38,-73.81C729.98,-62.77 759.26,-47.81 781.77,-36.31"/>
<polygon fill="black" stroke="black" points="783.24,-39.49 790.55,-31.83 780.05,-33.26 783.24,-39.49"/>
</g>
<!-- libminizip&#45;ng&#45;&gt;libz -->
<g id="edge12" class="edge">
<title>libminizip&#45;ng&#45;&gt;libz</title>
<path fill="none" stroke="black" d="M632.75,-77.71C624.72,-75.77 616.45,-73.81 608.65,-72 536.8,-55.34 452.56,-37.02 405.42,-26.87"/>
<polygon fill="black" stroke="black" points="406.26,-23.47 395.74,-24.79 404.79,-30.31 406.26,-23.47"/>
</g>
</g>
</svg>
