<?xml version="1.0" encoding="UTF-8" standalone="no"?>
<!DOCTYPE svg PUBLIC "-//W3C//DTD SVG 1.1//EN"
 "http://www.w3.org/Graphics/SVG/1.1/DTD/svg11.dtd">
<!-- Generated by graphviz version 10.0.1 (0)
 -->
<!-- Pages: 1 -->
<svg width="1499pt" height="44pt"
 viewBox="0.00 0.00 1498.73 44.00" xmlns="http://www.w3.org/2000/svg" xmlns:xlink="http://www.w3.org/1999/xlink">
<g id="graph0" class="graph" transform="scale(1 1) rotate(0) translate(4 40)">
<polygon fill="white" stroke="none" points="-4,4 -4,-40 1494.73,-40 1494.73,4 -4,4"/>
<!-- onstart -->
<g id="node1" class="node">
<title>onstart</title>
<ellipse fill="green" stroke="black" cx="47.53" cy="-18" rx="47.53" ry="18"/>
<text text-anchor="middle" x="47.53" y="-13.32" font-family="Times,serif" font-size="14.00">onstart</text>
</g>
<!-- dosetup -->
<g id="node2" class="node">
<title>dosetup</title>
<ellipse fill="none" stroke="black" cx="182.26" cy="-18" rx="51.21" ry="18"/>
<text text-anchor="middle" x="182.26" y="-13.32" font-family="Times,serif" font-size="14.00">dosetup</text>
</g>
<!-- onstart&#45;&gt;dosetup -->
<g id="edge1" class="edge">
<title>onstart&#45;&gt;dosetup</title>
<path fill="none" stroke="black" d="M95.32,-18C103.13,-18 111.34,-18 119.46,-18"/>
<polygon fill="black" stroke="black" points="119.31,-21.5 129.31,-18 119.31,-14.5 119.31,-21.5"/>
</g>
<!-- onready -->
<g id="node3" class="node">
<title>onready</title>
<ellipse fill="green" stroke="black" cx="321.2" cy="-18" rx="51.73" ry="18"/>
<text text-anchor="middle" x="321.2" y="-13.32" font-family="Times,serif" font-size="14.00">onready</text>
</g>
<!-- dosetup&#45;&gt;onready -->
<g id="edge2" class="edge">
<title>dosetup&#45;&gt;onready</title>
<path fill="none" stroke="black" d="M233.86,-18C241.73,-18 249.94,-18 258.04,-18"/>
<polygon fill="black" stroke="black" points="257.83,-21.5 267.83,-18 257.83,-14.5 257.83,-21.5"/>
</g>
<!-- do12345 -->
<g id="node4" class="node">
<title>do12345</title>
<polygon fill="none" stroke="black" stroke-dasharray="5,2" points="487.18,-36 408.93,-36 408.93,0 487.18,0 487.18,-36"/>
<text text-anchor="middle" x="448.06" y="-13.32" font-family="Times,serif" font-size="14.00">do12345</text>
</g>
<!-- onready&#45;&gt;do12345 -->
<g id="edge3" class="edge">
<title>onready&#45;&gt;do12345</title>
<path fill="none" stroke="black" d="M373.35,-18C381.31,-18 389.53,-18 397.46,-18"/>
<polygon fill="black" stroke="black" points="397.29,-21.5 407.29,-18 397.29,-14.5 397.29,-21.5"/>
</g>
<!-- dopatch -->
<g id="node5" class="node">
<title>dopatch</title>
<polygon fill="none" stroke="black" stroke-dasharray="5,2" points="596.18,-36 523.18,-36 523.18,0 596.18,0 596.18,-36"/>
<text text-anchor="middle" x="559.68" y="-13.32" font-family="Times,serif" font-size="14.00">dopatch</text>
</g>
<!-- do12345&#45;&gt;dopatch -->
<g id="edge4" class="edge">
<title>do12345&#45;&gt;dopatch</title>
<path fill="none" stroke="black" d="M487.4,-18C495.12,-18 503.31,-18 511.3,-18"/>
<polygon fill="black" stroke="black" points="511.24,-21.5 521.24,-18 511.24,-14.5 511.24,-21.5"/>
</g>
<!-- prepare -->
<g id="node6" class="node">
<title>prepare</title>
<polygon fill="none" stroke="black" stroke-dasharray="5,2" points="704.43,-36 632.18,-36 632.18,0 704.43,0 704.43,-36"/>
<text text-anchor="middle" x="668.31" y="-13.32" font-family="Times,serif" font-size="14.00">prepare</text>
</g>
<!-- dopatch&#45;&gt;prepare -->
<g id="edge5" class="edge">
<title>dopatch&#45;&gt;prepare</title>
<path fill="none" stroke="black" d="M596.49,-18C604.13,-18 612.31,-18 620.3,-18"/>
<polygon fill="black" stroke="black" points="620.27,-21.5 630.27,-18 620.27,-14.5 620.27,-21.5"/>
</g>
<!-- install -->
<g id="node7" class="node">
<title>install</title>
<ellipse fill="none" stroke="black" cx="782.7" cy="-18" rx="42.26" ry="18"/>
<text text-anchor="middle" x="782.7" y="-13.32" font-family="Times,serif" font-size="14.00">install</text>
</g>
<!-- prepare&#45;&gt;install -->
<g id="edge6" class="edge">
<title>prepare&#45;&gt;install</title>
<path fill="none" stroke="black" d="M704.87,-18C712.48,-18 720.67,-18 728.77,-18"/>
<polygon fill="black" stroke="black" points="728.58,-21.5 738.58,-18 728.58,-14.5 728.58,-21.5"/>
</g>
<!-- doextra -->
<g id="node8" class="node">
<title>doextra</title>
<polygon fill="none" stroke="black" stroke-dasharray="5,2" points="931.71,-36 860.96,-36 860.96,0 931.71,0 931.71,-36"/>
<text text-anchor="middle" x="896.34" y="-13.32" font-family="Times,serif" font-size="14.00">doextra</text>
</g>
<!-- install&#45;&gt;doextra -->
<g id="edge7" class="edge">
<title>install&#45;&gt;doextra</title>
<path fill="none" stroke="black" d="M825.27,-18C833.1,-18 841.33,-18 849.29,-18"/>
<polygon fill="black" stroke="black" points="849.16,-21.5 859.16,-18 849.16,-14.5 849.16,-21.5"/>
</g>
<!-- tweak_pc_files -->
<g id="node9" class="node">
<title>tweak_pc_files</title>
<ellipse fill="none" stroke="black" cx="1050.49" cy="-18" rx="82.77" ry="18"/>
<text text-anchor="middle" x="1050.49" y="-13.32" font-family="Times,serif" font-size="14.00">tweak_pc_files</text>
</g>
<!-- doextra&#45;&gt;tweak_pc_files -->
<g id="edge8" class="edge">
<title>doextra&#45;&gt;tweak_pc_files</title>
<path fill="none" stroke="black" d="M931.86,-18C939.3,-18 947.5,-18 956.01,-18"/>
<polygon fill="black" stroke="black" points="955.82,-21.5 965.82,-18 955.82,-14.5 955.82,-21.5"/>
</g>
<!-- dotweak -->
<g id="node10" class="node">
<title>dotweak</title>
<polygon fill="none" stroke="black" stroke-dasharray="5,2" points="1245.26,-36 1169.26,-36 1169.26,0 1245.26,0 1245.26,-36"/>
<text text-anchor="middle" x="1207.26" y="-13.32" font-family="Times,serif" font-size="14.00">dotweak</text>
</g>
<!-- tweak_pc_files&#45;&gt;dotweak -->
<g id="edge9" class="edge">
<title>tweak_pc_files&#45;&gt;dotweak</title>
<path fill="none" stroke="black" d="M1133.41,-18C1141.69,-18 1149.9,-18 1157.66,-18"/>
<polygon fill="black" stroke="black" points="1157.54,-21.5 1167.53,-18 1157.53,-14.5 1157.54,-21.5"/>
</g>
<!-- docheck -->
<g id="node11" class="node">
<title>docheck</title>
<ellipse fill="none" stroke="black" cx="1333" cy="-18" rx="51.73" ry="18"/>
<text text-anchor="middle" x="1333" y="-13.32" font-family="Times,serif" font-size="14.00">docheck</text>
</g>
<!-- dotweak&#45;&gt;docheck -->
<g id="edge10" class="edge">
<title>dotweak&#45;&gt;docheck</title>
<path fill="none" stroke="black" d="M1245.72,-18C1253.26,-18 1261.38,-18 1269.52,-18"/>
<polygon fill="black" stroke="black" points="1269.45,-21.5 1279.45,-18 1269.45,-14.5 1269.45,-21.5"/>
</g>
<!-- caveats -->
<g id="node12" class="node">
<title>caveats</title>
<polygon fill="none" stroke="black" stroke-dasharray="5,2" points="1490.73,-36 1420.73,-36 1420.73,0 1490.73,0 1490.73,-36"/>
<text text-anchor="middle" x="1455.73" y="-13.32" font-family="Times,serif" font-size="14.00">caveats</text>
</g>
<!-- docheck&#45;&gt;caveats -->
<g id="edge11" class="edge">
<title>docheck&#45;&gt;caveats</title>
<path fill="none" stroke="black" d="M1385.2,-18C1393.05,-18 1401.12,-18 1408.84,-18"/>
<polygon fill="black" stroke="black" points="1408.73,-21.5 1418.73,-18 1408.73,-14.5 1408.73,-21.5"/>
</g>
</g>
</svg>
