<?xml version="1.0" encoding="UTF-8" standalone="no"?>
<!DOCTYPE svg PUBLIC "-//W3C//DTD SVG 1.1//EN"
 "http://www.w3.org/Graphics/SVG/1.1/DTD/svg11.dtd">
<!-- Generated by graphviz version 10.0.1 (20240210.2158)
 -->
<!-- Title: G Pages: 1 -->
<svg width="508pt" height="44pt"
 viewBox="0.00 0.00 507.78 44.00" xmlns="http://www.w3.org/2000/svg" xmlns:xlink="http://www.w3.org/1999/xlink">
<g id="graph0" class="graph" transform="scale(1 1) rotate(0) translate(4 40)">
<title>G</title>
<polygon fill="white" stroke="none" points="-4,4 -4,-40 503.78,-40 503.78,4 -4,4"/>
<!-- onready -->
<g id="node1" class="node">
<title>onready</title>
<ellipse fill="none" stroke="black" cx="51.73" cy="-18" rx="51.73" ry="18"/>
<text text-anchor="middle" x="51.73" y="-13.32" font-family="Times,serif" font-size="14.00">onready</text>
</g>
<!-- dopatch -->
<g id="node2" class="node">
<title>dopatch</title>
<ellipse fill="none" stroke="black" cx="190.68" cy="-18" rx="51.21" ry="18"/>
<text text-anchor="middle" x="190.68" y="-13.32" font-family="Times,serif" font-size="14.00">dopatch</text>
</g>
<!-- onready&#45;&gt;dopatch -->
<g id="edge1" class="edge">
<title>onready&#45;&gt;dopatch</title>
<path fill="none" stroke="black" d="M103.73,-18C111.58,-18 119.77,-18 127.83,-18"/>
<polygon fill="black" stroke="black" points="127.58,-21.5 137.58,-18 127.58,-14.5 127.58,-21.5"/>
</g>
<!-- prepare -->
<g id="node3" class="node">
<title>prepare</title>
<ellipse fill="none" stroke="black" cx="328.57" cy="-18" rx="50.68" ry="18"/>
<text text-anchor="middle" x="328.57" y="-13.32" font-family="Times,serif" font-size="14.00">prepare</text>
</g>
<!-- dopatch&#45;&gt;prepare -->
<g id="edge2" class="edge">
<title>dopatch&#45;&gt;prepare</title>
<path fill="none" stroke="black" d="M242.28,-18C250.18,-18 258.41,-18 266.51,-18"/>
<polygon fill="black" stroke="black" points="266.31,-21.5 276.31,-18 266.31,-14.5 266.31,-21.5"/>
</g>
<!-- install -->
<g id="node4" class="node">
<title>install</title>
<ellipse fill="none" stroke="black" cx="457.51" cy="-18" rx="42.26" ry="18"/>
<text text-anchor="middle" x="457.51" y="-13.32" font-family="Times,serif" font-size="14.00">install</text>
</g>
<!-- prepare&#45;&gt;install -->
<g id="edge3" class="edge">
<title>prepare&#45;&gt;install</title>
<path fill="none" stroke="black" d="M379.74,-18C387.56,-18 395.67,-18 403.55,-18"/>
<polygon fill="black" stroke="black" points="403.37,-21.5 413.37,-18 403.37,-14.5 403.37,-21.5"/>
</g>
</g>
</svg>
