<?xml version="1.0" encoding="UTF-8" standalone="no"?>
<!DOCTYPE svg PUBLIC "-//W3C//DTD SVG 1.1//EN"
 "http://www.w3.org/Graphics/SVG/1.1/DTD/svg11.dtd">
<!-- Generated by graphviz version 10.0.1 (0)
 -->
<!-- Pages: 1 -->
<svg width="1498pt" height="44pt"
 viewBox="0.00 0.00 1498.43 44.00" xmlns="http://www.w3.org/2000/svg" xmlns:xlink="http://www.w3.org/1999/xlink">
<g id="graph0" class="graph" transform="scale(1 1) rotate(0) translate(4 40)">
<polygon fill="white" stroke="none" points="-4,4 -4,-40 1494.43,-40 1494.43,4 -4,4"/>
<!-- onstart -->
<g id="node1" class="node">
<title>onstart</title>
<ellipse fill="green" stroke="black" cx="47.53" cy="-18" rx="47.53" ry="18"/>
<text text-anchor="middle" x="47.53" y="-13.32" font-family="Times,serif" font-size="14.00">onstart</text>
</g>
<!-- prepare -->
<g id="node2" class="node">
<title>prepare</title>
<ellipse fill="none" stroke="black" cx="181.73" cy="-18" rx="50.68" ry="18"/>
<text text-anchor="middle" x="181.73" y="-13.32" font-family="Times,serif" font-size="14.00">prepare</text>
</g>
<!-- onstart&#45;&gt;prepare -->
<g id="edge1" class="edge">
<title>onstart&#45;&gt;prepare</title>
<path fill="none" stroke="black" d="M95.51,-18C103.28,-18 111.43,-18 119.49,-18"/>
<polygon fill="black" stroke="black" points="119.25,-21.5 129.25,-18 119.25,-14.5 119.25,-21.5"/>
</g>
<!-- onready -->
<g id="node3" class="node">
<title>onready</title>
<ellipse fill="green" stroke="black" cx="320.15" cy="-18" rx="51.73" ry="18"/>
<text text-anchor="middle" x="320.15" y="-13.32" font-family="Times,serif" font-size="14.00">onready</text>
</g>
<!-- prepare&#45;&gt;onready -->
<g id="edge2" class="edge">
<title>prepare&#45;&gt;onready</title>
<path fill="none" stroke="black" d="M232.75,-18C240.61,-18 248.81,-18 256.9,-18"/>
<polygon fill="black" stroke="black" points="256.71,-21.5 266.71,-18 256.71,-14.5 256.71,-21.5"/>
</g>
<!-- do12345 -->
<g id="node4" class="node">
<title>do12345</title>
<polygon fill="none" stroke="black" stroke-dasharray="5,2" points="486.13,-36 407.88,-36 407.88,0 486.13,0 486.13,-36"/>
<text text-anchor="middle" x="447.01" y="-13.32" font-family="Times,serif" font-size="14.00">do12345</text>
</g>
<!-- onready&#45;&gt;do12345 -->
<g id="edge3" class="edge">
<title>onready&#45;&gt;do12345</title>
<path fill="none" stroke="black" d="M372.29,-18C380.26,-18 388.47,-18 396.4,-18"/>
<polygon fill="black" stroke="black" points="396.24,-21.5 406.24,-18 396.24,-14.5 396.24,-21.5"/>
</g>
<!-- dopatch -->
<g id="node5" class="node">
<title>dopatch</title>
<polygon fill="none" stroke="black" stroke-dasharray="5,2" points="595.13,-36 522.13,-36 522.13,0 595.13,0 595.13,-36"/>
<text text-anchor="middle" x="558.63" y="-13.32" font-family="Times,serif" font-size="14.00">dopatch</text>
</g>
<!-- do12345&#45;&gt;dopatch -->
<g id="edge4" class="edge">
<title>do12345&#45;&gt;dopatch</title>
<path fill="none" stroke="black" d="M486.35,-18C494.07,-18 502.26,-18 510.24,-18"/>
<polygon fill="black" stroke="black" points="510.19,-21.5 520.19,-18 510.19,-14.5 510.19,-21.5"/>
</g>
<!-- dosetup -->
<g id="node6" class="node">
<title>dosetup</title>
<polygon fill="none" stroke="black" stroke-dasharray="5,2" points="704.13,-36 631.13,-36 631.13,0 704.13,0 704.13,-36"/>
<text text-anchor="middle" x="667.63" y="-13.32" font-family="Times,serif" font-size="14.00">dosetup</text>
</g>
<!-- dopatch&#45;&gt;dosetup -->
<g id="edge5" class="edge">
<title>dopatch&#45;&gt;dosetup</title>
<path fill="none" stroke="black" d="M595.56,-18C603.32,-18 611.63,-18 619.74,-18"/>
<polygon fill="black" stroke="black" points="619.47,-21.5 629.47,-18 619.47,-14.5 619.47,-21.5"/>
</g>
<!-- install -->
<g id="node7" class="node">
<title>install</title>
<ellipse fill="none" stroke="black" cx="782.4" cy="-18" rx="42.26" ry="18"/>
<text text-anchor="middle" x="782.4" y="-13.32" font-family="Times,serif" font-size="14.00">install</text>
</g>
<!-- dosetup&#45;&gt;install -->
<g id="edge6" class="edge">
<title>dosetup&#45;&gt;install</title>
<path fill="none" stroke="black" d="M704.62,-18C712.24,-18 720.44,-18 728.54,-18"/>
<polygon fill="black" stroke="black" points="728.35,-21.5 738.35,-18 728.35,-14.5 728.35,-21.5"/>
</g>
<!-- doextra -->
<g id="node8" class="node">
<title>doextra</title>
<polygon fill="none" stroke="black" stroke-dasharray="5,2" points="931.41,-36 860.66,-36 860.66,0 931.41,0 931.41,-36"/>
<text text-anchor="middle" x="896.04" y="-13.32" font-family="Times,serif" font-size="14.00">doextra</text>
</g>
<!-- install&#45;&gt;doextra -->
<g id="edge7" class="edge">
<title>install&#45;&gt;doextra</title>
<path fill="none" stroke="black" d="M824.97,-18C832.8,-18 841.03,-18 848.99,-18"/>
<polygon fill="black" stroke="black" points="848.86,-21.5 858.86,-18 848.86,-14.5 848.86,-21.5"/>
</g>
<!-- tweak_pc_files -->
<g id="node9" class="node">
<title>tweak_pc_files</title>
<ellipse fill="none" stroke="black" cx="1050.19" cy="-18" rx="82.77" ry="18"/>
<text text-anchor="middle" x="1050.19" y="-13.32" font-family="Times,serif" font-size="14.00">tweak_pc_files</text>
</g>
<!-- doextra&#45;&gt;tweak_pc_files -->
<g id="edge8" class="edge">
<title>doextra&#45;&gt;tweak_pc_files</title>
<path fill="none" stroke="black" d="M931.56,-18C939,-18 947.2,-18 955.71,-18"/>
<polygon fill="black" stroke="black" points="955.52,-21.5 965.52,-18 955.52,-14.5 955.52,-21.5"/>
</g>
<!-- dotweak -->
<g id="node10" class="node">
<title>dotweak</title>
<polygon fill="none" stroke="black" stroke-dasharray="5,2" points="1244.96,-36 1168.96,-36 1168.96,0 1244.96,0 1244.96,-36"/>
<text text-anchor="middle" x="1206.96" y="-13.32" font-family="Times,serif" font-size="14.00">dotweak</text>
</g>
<!-- tweak_pc_files&#45;&gt;dotweak -->
<g id="edge9" class="edge">
<title>tweak_pc_files&#45;&gt;dotweak</title>
<path fill="none" stroke="black" d="M1133.11,-18C1141.39,-18 1149.6,-18 1157.36,-18"/>
<polygon fill="black" stroke="black" points="1157.23,-21.5 1167.23,-18 1157.23,-14.5 1157.23,-21.5"/>
</g>
<!-- docheck -->
<g id="node11" class="node">
<title>docheck</title>
<ellipse fill="none" stroke="black" cx="1332.69" cy="-18" rx="51.73" ry="18"/>
<text text-anchor="middle" x="1332.69" y="-13.32" font-family="Times,serif" font-size="14.00">docheck</text>
</g>
<!-- dotweak&#45;&gt;docheck -->
<g id="edge10" class="edge">
<title>dotweak&#45;&gt;docheck</title>
<path fill="none" stroke="black" d="M1245.42,-18C1252.96,-18 1261.08,-18 1269.21,-18"/>
<polygon fill="black" stroke="black" points="1269.15,-21.5 1279.15,-18 1269.15,-14.5 1269.15,-21.5"/>
</g>
<!-- caveats -->
<g id="node12" class="node">
<title>caveats</title>
<polygon fill="none" stroke="black" stroke-dasharray="5,2" points="1490.43,-36 1420.43,-36 1420.43,0 1490.43,0 1490.43,-36"/>
<text text-anchor="middle" x="1455.43" y="-13.32" font-family="Times,serif" font-size="14.00">caveats</text>
</g>
<!-- docheck&#45;&gt;caveats -->
<g id="edge11" class="edge">
<title>docheck&#45;&gt;caveats</title>
<path fill="none" stroke="black" d="M1384.9,-18C1392.75,-18 1400.81,-18 1408.54,-18"/>
<polygon fill="black" stroke="black" points="1408.43,-21.5 1418.43,-18 1408.43,-14.5 1408.43,-21.5"/>
</g>
</g>
</svg>
