<?xml version="1.0" encoding="UTF-8" standalone="no"?>
<!DOCTYPE svg PUBLIC "-//W3C//DTD SVG 1.1//EN"
 "http://www.w3.org/Graphics/SVG/1.1/DTD/svg11.dtd">
<!-- Generated by graphviz version 11.0.0 (0)
 -->
<!-- Title: G Pages: 1 -->
<svg width="1623pt" height="476pt"
 viewBox="0.00 0.00 1623.04 476.00" xmlns="http://www.w3.org/2000/svg" xmlns:xlink="http://www.w3.org/1999/xlink">
<g id="graph0" class="graph" transform="scale(1 1) rotate(0) translate(4 472)">
<title>G</title>
<polygon fill="white" stroke="none" points="-4,4 -4,-472 1619.04,-472 1619.04,4 -4,4"/>
<!-- tesseract -->
<g id="node1" class="node">
<title>tesseract</title>
<ellipse fill="none" stroke="black" cx="764.16" cy="-450" rx="42.65" ry="18"/>
<text text-anchor="middle" x="764.16" y="-444.95" font-family="Times,serif" font-size="14.00">tesseract</text>
</g>
<!-- leptonica -->
<g id="node2" class="node">
<title>leptonica</title>
<ellipse fill="none" stroke="black" cx="364.16" cy="-234" rx="44.7" ry="18"/>
<text text-anchor="middle" x="364.16" y="-228.95" font-family="Times,serif" font-size="14.00">leptonica</text>
</g>
<!-- tesseract&#45;&gt;leptonica -->
<g id="edge1" class="edge">
<title>tesseract&#45;&gt;leptonica</title>
<path fill="none" stroke="black" d="M738.53,-435.29C669.64,-398.43 480.28,-297.12 400.43,-254.4"/>
<polygon fill="black" stroke="black" points="402.16,-251.36 391.69,-249.73 398.86,-257.53 402.16,-251.36"/>
</g>
<!-- icu4c -->
<g id="node3" class="node">
<title>icu4c</title>
<ellipse fill="none" stroke="black" cx="1584.16" cy="-234" rx="30.88" ry="18"/>
<text text-anchor="middle" x="1584.16" y="-228.95" font-family="Times,serif" font-size="14.00">icu4c</text>
</g>
<!-- tesseract&#45;&gt;icu4c -->
<g id="edge2" class="edge">
<title>tesseract&#45;&gt;icu4c</title>
<path fill="none" stroke="black" d="M806.81,-448.31C917.08,-445.04 1218.63,-426.62 1442.16,-324 1484.26,-304.67 1528.93,-274.96 1556.68,-255.25"/>
<polygon fill="black" stroke="black" points="1558.44,-258.29 1564.53,-249.62 1554.36,-252.61 1558.44,-258.29"/>
</g>
<!-- pango -->
<g id="node4" class="node">
<title>pango</title>
<ellipse fill="none" stroke="black" cx="1168.16" cy="-378" rx="33.44" ry="18"/>
<text text-anchor="middle" x="1168.16" y="-372.95" font-family="Times,serif" font-size="14.00">pango</text>
</g>
<!-- tesseract&#45;&gt;pango -->
<g id="edge3" class="edge">
<title>tesseract&#45;&gt;pango</title>
<path fill="none" stroke="black" d="M803.27,-442.22C879.33,-429.05 1046.64,-400.06 1125.47,-386.4"/>
<polygon fill="black" stroke="black" points="1125.69,-389.91 1134.95,-384.75 1124.5,-383.01 1125.69,-389.91"/>
</g>
<!-- libarchive -->
<g id="node5" class="node">
<title>libarchive</title>
<ellipse fill="none" stroke="black" cx="764.16" cy="-162" rx="47.77" ry="18"/>
<text text-anchor="middle" x="764.16" y="-156.95" font-family="Times,serif" font-size="14.00">libarchive</text>
</g>
<!-- tesseract&#45;&gt;libarchive -->
<g id="edge4" class="edge">
<title>tesseract&#45;&gt;libarchive</title>
<path fill="none" stroke="black" d="M764.16,-431.54C764.16,-383.76 764.16,-250.51 764.16,-191.61"/>
<polygon fill="black" stroke="black" points="767.66,-191.75 764.16,-181.75 760.66,-191.75 767.66,-191.75"/>
</g>
<!-- libcurl -->
<g id="node6" class="node">
<title>libcurl</title>
<ellipse fill="none" stroke="black" cx="663.16" cy="-162" rx="34.97" ry="18"/>
<text text-anchor="middle" x="663.16" y="-156.95" font-family="Times,serif" font-size="14.00">libcurl</text>
</g>
<!-- tesseract&#45;&gt;libcurl -->
<g id="edge5" class="edge">
<title>tesseract&#45;&gt;libcurl</title>
<path fill="none" stroke="black" d="M758.15,-431.97C741.31,-384.28 693.57,-249.11 672.9,-190.58"/>
<polygon fill="black" stroke="black" points="676.28,-189.64 669.65,-181.37 669.68,-191.97 676.28,-189.64"/>
</g>
<!-- libpng -->
<g id="node24" class="node">
<title>libpng</title>
<ellipse fill="none" stroke="black" cx="1206.16" cy="-90" rx="34.46" ry="18"/>
<text text-anchor="middle" x="1206.16" y="-84.95" font-family="Times,serif" font-size="14.00">libpng</text>
</g>
<!-- leptonica&#45;&gt;libpng -->
<g id="edge57" class="edge">
<title>leptonica&#45;&gt;libpng</title>
<path fill="none" stroke="black" d="M408.9,-231.65C557.67,-226.92 1029.87,-209.67 1091.16,-180 1110.7,-170.54 1107.58,-158 1124.16,-144 1139.35,-131.17 1157.84,-118.97 1173.41,-109.52"/>
<polygon fill="black" stroke="black" points="1175.05,-112.61 1181.86,-104.49 1171.48,-106.6 1175.05,-112.61"/>
</g>
<!-- libgif -->
<g id="node31" class="node">
<title>libgif</title>
<ellipse fill="none" stroke="black" cx="135.16" cy="-162" rx="30.88" ry="18"/>
<text text-anchor="middle" x="135.16" y="-156.95" font-family="Times,serif" font-size="14.00">libgif</text>
</g>
<!-- leptonica&#45;&gt;libgif -->
<g id="edge58" class="edge">
<title>leptonica&#45;&gt;libgif</title>
<path fill="none" stroke="black" d="M326.43,-223.94C287.96,-214.35 226.77,-198.12 175.16,-180 173.35,-179.36 171.51,-178.69 169.65,-177.98"/>
<polygon fill="black" stroke="black" points="171.07,-174.78 160.48,-174.32 168.47,-181.28 171.07,-174.78"/>
</g>
<!-- libtiff -->
<g id="node32" class="node">
<title>libtiff</title>
<ellipse fill="none" stroke="black" cx="216.16" cy="-162" rx="31.9" ry="18"/>
<text text-anchor="middle" x="216.16" y="-156.95" font-family="Times,serif" font-size="14.00">libtiff</text>
</g>
<!-- leptonica&#45;&gt;libtiff -->
<g id="edge59" class="edge">
<title>leptonica&#45;&gt;libtiff</title>
<path fill="none" stroke="black" d="M335.98,-219.67C311.5,-208.09 276.01,-191.31 250.01,-179.01"/>
<polygon fill="black" stroke="black" points="251.76,-175.96 241.22,-174.85 248.76,-182.29 251.76,-175.96"/>
</g>
<!-- libwebp -->
<g id="node33" class="node">
<title>libwebp</title>
<ellipse fill="none" stroke="black" cx="307.16" cy="-162" rx="40.6" ry="18"/>
<text text-anchor="middle" x="307.16" y="-156.95" font-family="Times,serif" font-size="14.00">libwebp</text>
</g>
<!-- leptonica&#45;&gt;libwebp -->
<g id="edge60" class="edge">
<title>leptonica&#45;&gt;libwebp</title>
<path fill="none" stroke="black" d="M350.65,-216.41C343.84,-208.04 335.43,-197.71 327.82,-188.37"/>
<polygon fill="black" stroke="black" points="330.56,-186.19 321.53,-180.64 325.13,-190.61 330.56,-186.19"/>
</g>
<!-- libopenjpeg -->
<g id="node34" class="node">
<title>libopenjpeg</title>
<ellipse fill="none" stroke="black" cx="420.16" cy="-162" rx="54.42" ry="18"/>
<text text-anchor="middle" x="420.16" y="-156.95" font-family="Times,serif" font-size="14.00">libopenjpeg</text>
</g>
<!-- leptonica&#45;&gt;libopenjpeg -->
<g id="edge61" class="edge">
<title>leptonica&#45;&gt;libopenjpeg</title>
<path fill="none" stroke="black" d="M377.43,-216.41C384.13,-208.04 392.39,-197.71 399.87,-188.37"/>
<polygon fill="black" stroke="black" points="402.53,-190.65 406.04,-180.65 397.06,-186.27 402.53,-190.65"/>
</g>
<!-- libjpeg&#45;turbo -->
<g id="node35" class="node">
<title>libjpeg&#45;turbo</title>
<ellipse fill="none" stroke="black" cx="551.16" cy="-162" rx="59.03" ry="18"/>
<text text-anchor="middle" x="551.16" y="-156.95" font-family="Times,serif" font-size="14.00">libjpeg&#45;turbo</text>
</g>
<!-- leptonica&#45;&gt;libjpeg&#45;turbo -->
<g id="edge62" class="edge">
<title>leptonica&#45;&gt;libjpeg&#45;turbo</title>
<path fill="none" stroke="black" d="M395.88,-221.13C425.6,-210 470.37,-193.24 504.22,-180.57"/>
<polygon fill="black" stroke="black" points="505.24,-183.93 513.38,-177.14 502.79,-177.37 505.24,-183.93"/>
</g>
<!-- liblcms2 -->
<g id="node36" class="node">
<title>liblcms2</title>
<ellipse fill="none" stroke="black" cx="43.16" cy="-162" rx="43.16" ry="18"/>
<text text-anchor="middle" x="43.16" y="-156.95" font-family="Times,serif" font-size="14.00">liblcms2</text>
</g>
<!-- leptonica&#45;&gt;liblcms2 -->
<g id="edge63" class="edge">
<title>leptonica&#45;&gt;liblcms2</title>
<path fill="none" stroke="black" d="M323.25,-226.53C270.22,-217.78 175.07,-200.85 95.16,-180 92.39,-179.28 89.55,-178.49 86.69,-177.66"/>
<polygon fill="black" stroke="black" points="87.75,-174.32 77.16,-174.75 85.71,-181.02 87.75,-174.32"/>
</g>
<!-- cairo -->
<g id="node18" class="node">
<title>cairo</title>
<ellipse fill="none" stroke="black" cx="1128.16" cy="-306" rx="29.34" ry="18"/>
<text text-anchor="middle" x="1128.16" y="-300.95" font-family="Times,serif" font-size="14.00">cairo</text>
</g>
<!-- pango&#45;&gt;cairo -->
<g id="edge20" class="edge">
<title>pango&#45;&gt;cairo</title>
<path fill="none" stroke="black" d="M1158.68,-360.41C1154.05,-352.3 1148.36,-342.35 1143.16,-333.25"/>
<polygon fill="black" stroke="black" points="1146.33,-331.73 1138.32,-324.78 1140.25,-335.2 1146.33,-331.73"/>
</g>
<!-- fribidi -->
<g id="node19" class="node">
<title>fribidi</title>
<ellipse fill="none" stroke="black" cx="1209.16" cy="-306" rx="33.95" ry="18"/>
<text text-anchor="middle" x="1209.16" y="-300.95" font-family="Times,serif" font-size="14.00">fribidi</text>
</g>
<!-- pango&#45;&gt;fribidi -->
<g id="edge21" class="edge">
<title>pango&#45;&gt;fribidi</title>
<path fill="none" stroke="black" d="M1177.88,-360.41C1182.63,-352.3 1188.46,-342.35 1193.79,-333.25"/>
<polygon fill="black" stroke="black" points="1196.72,-335.17 1198.75,-324.78 1190.68,-331.64 1196.72,-335.17"/>
</g>
<!-- libharfbuzz -->
<g id="node20" class="node">
<title>libharfbuzz</title>
<ellipse fill="none" stroke="black" cx="1380.16" cy="-306" rx="52.89" ry="18"/>
<text text-anchor="middle" x="1380.16" y="-300.95" font-family="Times,serif" font-size="14.00">libharfbuzz</text>
</g>
<!-- pango&#45;&gt;libharfbuzz -->
<g id="edge22" class="edge">
<title>pango&#45;&gt;libharfbuzz</title>
<path fill="none" stroke="black" d="M1196.31,-367.7C1231.05,-356.23 1290.66,-336.55 1332.56,-322.72"/>
<polygon fill="black" stroke="black" points="1333.51,-326.09 1341.9,-319.63 1331.31,-319.44 1333.51,-326.09"/>
</g>
<!-- libopenssl -->
<g id="node8" class="node">
<title>libopenssl</title>
<ellipse fill="none" stroke="black" cx="619.16" cy="-90" rx="48.28" ry="18"/>
<text text-anchor="middle" x="619.16" y="-84.95" font-family="Times,serif" font-size="14.00">libopenssl</text>
</g>
<!-- libarchive&#45;&gt;libopenssl -->
<g id="edge11" class="edge">
<title>libarchive&#45;&gt;libopenssl</title>
<path fill="none" stroke="black" d="M735.52,-147.17C713.37,-136.48 682.49,-121.57 658.1,-109.8"/>
<polygon fill="black" stroke="black" points="659.64,-106.65 649.11,-105.46 656.6,-112.96 659.64,-106.65"/>
</g>
<!-- libzstd -->
<g id="node10" class="node">
<title>libzstd</title>
<ellipse fill="none" stroke="black" cx="517.16" cy="-90" rx="35.49" ry="18"/>
<text text-anchor="middle" x="517.16" y="-84.95" font-family="Times,serif" font-size="14.00">libzstd</text>
</g>
<!-- libarchive&#45;&gt;libzstd -->
<g id="edge12" class="edge">
<title>libarchive&#45;&gt;libzstd</title>
<path fill="none" stroke="black" d="M727.75,-149.86C720.92,-147.86 713.84,-145.82 707.16,-144 643.11,-126.51 625.55,-127.77 562.16,-108 559.92,-107.3 557.63,-106.55 555.32,-105.77"/>
<polygon fill="black" stroke="black" points="556.61,-102.51 546.02,-102.46 554.26,-109.11 556.61,-102.51"/>
</g>
<!-- libz -->
<g id="node11" class="node">
<title>libz</title>
<ellipse fill="none" stroke="black" cx="1206.16" cy="-18" rx="27" ry="18"/>
<text text-anchor="middle" x="1206.16" y="-12.95" font-family="Times,serif" font-size="14.00">libz</text>
</g>
<!-- libarchive&#45;&gt;libz -->
<g id="edge13" class="edge">
<title>libarchive&#45;&gt;libz</title>
<path fill="none" stroke="black" d="M744.21,-145.21C722.69,-126.31 694.03,-94.42 714.16,-72 744.35,-38.39 1057.06,-24.23 1167.67,-20.25"/>
<polygon fill="black" stroke="black" points="1167.54,-23.76 1177.41,-19.91 1167.3,-16.76 1167.54,-23.76"/>
</g>
<!-- liblz4 -->
<g id="node12" class="node">
<title>liblz4</title>
<ellipse fill="none" stroke="black" cx="755.16" cy="-90" rx="31.9" ry="18"/>
<text text-anchor="middle" x="755.16" y="-84.95" font-family="Times,serif" font-size="14.00">liblz4</text>
</g>
<!-- libarchive&#45;&gt;liblz4 -->
<g id="edge14" class="edge">
<title>libarchive&#45;&gt;liblz4</title>
<path fill="none" stroke="black" d="M761.94,-143.7C760.99,-136.32 759.86,-127.52 758.79,-119.25"/>
<polygon fill="black" stroke="black" points="762.3,-119.08 757.55,-109.61 755.36,-119.97 762.3,-119.08"/>
</g>
<!-- liblzo -->
<g id="node13" class="node">
<title>liblzo</title>
<ellipse fill="none" stroke="black" cx="837.16" cy="-90" rx="31.9" ry="18"/>
<text text-anchor="middle" x="837.16" y="-84.95" font-family="Times,serif" font-size="14.00">liblzo</text>
</g>
<!-- libarchive&#45;&gt;liblzo -->
<g id="edge15" class="edge">
<title>libarchive&#45;&gt;liblzo</title>
<path fill="none" stroke="black" d="M781.09,-144.76C790.8,-135.46 803.12,-123.64 813.74,-113.46"/>
<polygon fill="black" stroke="black" points="815.93,-116.21 820.72,-106.76 811.08,-111.16 815.93,-116.21"/>
</g>
<!-- liblzma -->
<g id="node14" class="node">
<title>liblzma</title>
<ellipse fill="none" stroke="black" cx="424.16" cy="-90" rx="39.07" ry="18"/>
<text text-anchor="middle" x="424.16" y="-84.95" font-family="Times,serif" font-size="14.00">liblzma</text>
</g>
<!-- libarchive&#45;&gt;liblzma -->
<g id="edge16" class="edge">
<title>libarchive&#45;&gt;liblzma</title>
<path fill="none" stroke="black" d="M728.48,-149.54C721.46,-147.52 714.11,-145.56 707.16,-144 604.5,-120.91 575.29,-133.35 473.16,-108 470.37,-107.31 467.51,-106.52 464.65,-105.68"/>
<polygon fill="black" stroke="black" points="465.73,-102.35 455.14,-102.67 463.62,-109.03 465.73,-102.35"/>
</g>
<!-- libbz2 -->
<g id="node15" class="node">
<title>libbz2</title>
<ellipse fill="none" stroke="black" cx="1120.16" cy="-90" rx="33.95" ry="18"/>
<text text-anchor="middle" x="1120.16" y="-84.95" font-family="Times,serif" font-size="14.00">libbz2</text>
</g>
<!-- libarchive&#45;&gt;libbz2 -->
<g id="edge17" class="edge">
<title>libarchive&#45;&gt;libbz2</title>
<path fill="none" stroke="black" d="M809.91,-156.29C871.47,-149.26 984,-134 1077.16,-108 1079.4,-107.38 1081.68,-106.68 1083.96,-105.93"/>
<polygon fill="black" stroke="black" points="1084.88,-109.31 1093.12,-102.65 1082.52,-102.72 1084.88,-109.31"/>
</g>
<!-- libiconv -->
<g id="node16" class="node">
<title>libiconv</title>
<ellipse fill="none" stroke="black" cx="1337.16" cy="-90" rx="41.12" ry="18"/>
<text text-anchor="middle" x="1337.16" y="-84.95" font-family="Times,serif" font-size="14.00">libiconv</text>
</g>
<!-- libarchive&#45;&gt;libiconv -->
<g id="edge18" class="edge">
<title>libarchive&#45;&gt;libiconv</title>
<path fill="none" stroke="black" d="M810.47,-157.21C896.95,-149.86 1088.77,-132.21 1249.16,-108 1262.37,-106.01 1276.62,-103.44 1289.72,-100.9"/>
<polygon fill="black" stroke="black" points="1290.27,-104.36 1299.4,-98.99 1288.91,-97.5 1290.27,-104.36"/>
</g>
<!-- libexpat -->
<g id="node17" class="node">
<title>libexpat</title>
<ellipse fill="none" stroke="black" cx="928.16" cy="-90" rx="40.6" ry="18"/>
<text text-anchor="middle" x="928.16" y="-84.95" font-family="Times,serif" font-size="14.00">libexpat</text>
</g>
<!-- libarchive&#45;&gt;libexpat -->
<g id="edge19" class="edge">
<title>libarchive&#45;&gt;libexpat</title>
<path fill="none" stroke="black" d="M795.01,-147.83C821.67,-136.46 860.33,-119.95 889.14,-107.66"/>
<polygon fill="black" stroke="black" points="890.43,-110.91 898.26,-103.76 887.69,-104.47 890.43,-110.91"/>
</g>
<!-- libnghttp2 -->
<g id="node7" class="node">
<title>libnghttp2</title>
<ellipse fill="none" stroke="black" cx="280.16" cy="-90" rx="48.79" ry="18"/>
<text text-anchor="middle" x="280.16" y="-84.95" font-family="Times,serif" font-size="14.00">libnghttp2</text>
</g>
<!-- libcurl&#45;&gt;libnghttp2 -->
<g id="edge6" class="edge">
<title>libcurl&#45;&gt;libnghttp2</title>
<path fill="none" stroke="black" d="M636.97,-149.71C631.19,-147.55 625.04,-145.49 619.16,-144 499.28,-113.49 464.48,-132.17 343.16,-108 338.35,-107.04 333.35,-105.92 328.38,-104.72"/>
<polygon fill="black" stroke="black" points="329.63,-101.42 319.08,-102.36 327.91,-108.21 329.63,-101.42"/>
</g>
<!-- libcurl&#45;&gt;libopenssl -->
<g id="edge7" class="edge">
<title>libcurl&#45;&gt;libopenssl</title>
<path fill="none" stroke="black" d="M652.74,-144.41C647.71,-136.42 641.57,-126.64 635.91,-117.64"/>
<polygon fill="black" stroke="black" points="638.91,-115.84 630.63,-109.24 632.98,-119.57 638.91,-115.84"/>
</g>
<!-- libbrotli -->
<g id="node9" class="node">
<title>libbrotli</title>
<ellipse fill="none" stroke="black" cx="1027.16" cy="-90" rx="40.6" ry="18"/>
<text text-anchor="middle" x="1027.16" y="-84.95" font-family="Times,serif" font-size="14.00">libbrotli</text>
</g>
<!-- libcurl&#45;&gt;libbrotli -->
<g id="edge8" class="edge">
<title>libcurl&#45;&gt;libbrotli</title>
<path fill="none" stroke="black" d="M689.36,-149.72C695.14,-147.56 701.29,-145.5 707.16,-144 824.88,-113.89 859.94,-136.06 978.16,-108 980.79,-107.38 983.47,-106.67 986.16,-105.9"/>
<polygon fill="black" stroke="black" points="987.17,-109.25 995.68,-102.94 985.09,-102.57 987.17,-109.25"/>
</g>
<!-- libcurl&#45;&gt;libzstd -->
<g id="edge9" class="edge">
<title>libcurl&#45;&gt;libzstd</title>
<path fill="none" stroke="black" d="M638.06,-148.97C614.56,-137.7 579.2,-120.74 552.78,-108.08"/>
<polygon fill="black" stroke="black" points="554.32,-104.93 543.79,-103.77 551.29,-111.24 554.32,-104.93"/>
</g>
<!-- libcurl&#45;&gt;libz -->
<g id="edge10" class="edge">
<title>libcurl&#45;&gt;libz</title>
<path fill="none" stroke="black" d="M636.95,-149.78C631.17,-147.62 625.02,-145.55 619.16,-144 510.25,-115.27 299.09,-154.15 376.16,-72 403.6,-42.75 1008.65,-24.35 1167.99,-20"/>
<polygon fill="black" stroke="black" points="1167.68,-23.51 1177.59,-19.74 1167.49,-16.51 1167.68,-23.51"/>
</g>
<!-- cairo&#45;&gt;liblzo -->
<g id="edge36" class="edge">
<title>cairo&#45;&gt;liblzo</title>
<path fill="none" stroke="black" d="M1098.89,-302.67C1039.68,-297.35 908.65,-282.39 877.16,-252 841.23,-217.32 835.62,-155.75 835.75,-119.64"/>
<polygon fill="black" stroke="black" points="839.24,-120.02 835.94,-109.95 832.24,-119.88 839.24,-120.02"/>
</g>
<!-- glib -->
<g id="node21" class="node">
<title>glib</title>
<ellipse fill="none" stroke="black" cx="1380.16" cy="-234" rx="27" ry="18"/>
<text text-anchor="middle" x="1380.16" y="-228.95" font-family="Times,serif" font-size="14.00">glib</text>
</g>
<!-- cairo&#45;&gt;glib -->
<g id="edge37" class="edge">
<title>cairo&#45;&gt;glib</title>
<path fill="none" stroke="black" d="M1150.81,-294.08C1155.8,-291.9 1161.11,-289.74 1166.16,-288 1226.99,-267.05 1300.2,-250.76 1343.31,-242.05"/>
<polygon fill="black" stroke="black" points="1343.76,-245.52 1352.89,-240.14 1342.4,-238.66 1343.76,-245.52"/>
</g>
<!-- cairo&#45;&gt;libpng -->
<g id="edge38" class="edge">
<title>cairo&#45;&gt;libpng</title>
<path fill="none" stroke="black" d="M1134.28,-288.21C1147.66,-251.5 1179.63,-163.79 1196.05,-118.74"/>
<polygon fill="black" stroke="black" points="1199.31,-120.03 1199.44,-109.43 1192.73,-117.63 1199.31,-120.03"/>
</g>
<!-- libfontconfig -->
<g id="node28" class="node">
<title>libfontconfig</title>
<ellipse fill="none" stroke="black" cx="945.16" cy="-234" rx="59.03" ry="18"/>
<text text-anchor="middle" x="945.16" y="-228.95" font-family="Times,serif" font-size="14.00">libfontconfig</text>
</g>
<!-- cairo&#45;&gt;libfontconfig -->
<g id="edge39" class="edge">
<title>cairo&#45;&gt;libfontconfig</title>
<path fill="none" stroke="black" d="M1103.86,-295.7C1075.31,-284.78 1027.32,-266.42 991.56,-252.75"/>
<polygon fill="black" stroke="black" points="992.9,-249.51 982.31,-249.21 990.4,-256.05 992.9,-249.51"/>
</g>
<!-- libxml2 -->
<g id="node29" class="node">
<title>libxml2</title>
<ellipse fill="none" stroke="black" cx="1254.16" cy="-162" rx="40.09" ry="18"/>
<text text-anchor="middle" x="1254.16" y="-156.95" font-family="Times,serif" font-size="14.00">libxml2</text>
</g>
<!-- cairo&#45;&gt;libxml2 -->
<g id="edge40" class="edge">
<title>cairo&#45;&gt;libxml2</title>
<path fill="none" stroke="black" d="M1148.79,-292.91C1164.18,-283.2 1185.08,-268.49 1200.16,-252 1217.09,-233.49 1231.53,-208.9 1241.21,-190.26"/>
<polygon fill="black" stroke="black" points="1244.29,-191.92 1245.66,-181.41 1238.04,-188.77 1244.29,-191.92"/>
</g>
<!-- libpixman -->
<g id="node30" class="node">
<title>libpixman</title>
<ellipse fill="none" stroke="black" cx="1071.16" cy="-234" rx="48.79" ry="18"/>
<text text-anchor="middle" x="1071.16" y="-228.95" font-family="Times,serif" font-size="14.00">libpixman</text>
</g>
<!-- cairo&#45;&gt;libpixman -->
<g id="edge41" class="edge">
<title>cairo&#45;&gt;libpixman</title>
<path fill="none" stroke="black" d="M1115.51,-289.46C1108.55,-280.92 1099.74,-270.1 1091.82,-260.36"/>
<polygon fill="black" stroke="black" points="1094.56,-258.19 1085.53,-252.64 1089.13,-262.61 1094.56,-258.19"/>
</g>
<!-- libharfbuzz&#45;&gt;icu4c -->
<g id="edge23" class="edge">
<title>libharfbuzz&#45;&gt;icu4c</title>
<path fill="none" stroke="black" d="M1419.27,-293.44C1452.71,-283.3 1501.97,-267.75 1544.16,-252 1545.96,-251.33 1547.8,-250.62 1549.64,-249.9"/>
<polygon fill="black" stroke="black" points="1550.85,-253.19 1558.79,-246.17 1548.21,-246.7 1550.85,-253.19"/>
</g>
<!-- libharfbuzz&#45;&gt;glib -->
<g id="edge24" class="edge">
<title>libharfbuzz&#45;&gt;glib</title>
<path fill="none" stroke="black" d="M1380.16,-287.7C1380.16,-280.41 1380.16,-271.73 1380.16,-263.54"/>
<polygon fill="black" stroke="black" points="1383.66,-263.62 1380.16,-253.62 1376.66,-263.62 1383.66,-263.62"/>
</g>
<!-- libfreetype -->
<g id="node22" class="node">
<title>libfreetype</title>
<ellipse fill="none" stroke="black" cx="1031.16" cy="-162" rx="50.84" ry="18"/>
<text text-anchor="middle" x="1031.16" y="-156.95" font-family="Times,serif" font-size="14.00">libfreetype</text>
</g>
<!-- libharfbuzz&#45;&gt;libfreetype -->
<g id="edge25" class="edge">
<title>libharfbuzz&#45;&gt;libfreetype</title>
<path fill="none" stroke="black" d="M1347.01,-291.51C1283.41,-265.63 1144.32,-209.04 1073.87,-180.38"/>
<polygon fill="black" stroke="black" points="1075.57,-177.29 1064.98,-176.76 1072.93,-183.77 1075.57,-177.29"/>
</g>
<!-- libgraphite2 -->
<g id="node23" class="node">
<title>libgraphite2</title>
<ellipse fill="none" stroke="black" cx="1480.16" cy="-234" rx="55.45" ry="18"/>
<text text-anchor="middle" x="1480.16" y="-228.95" font-family="Times,serif" font-size="14.00">libgraphite2</text>
</g>
<!-- libharfbuzz&#45;&gt;libgraphite2 -->
<g id="edge26" class="edge">
<title>libharfbuzz&#45;&gt;libgraphite2</title>
<path fill="none" stroke="black" d="M1402.36,-289.46C1415.86,-280.02 1433.32,-267.79 1448.28,-257.32"/>
<polygon fill="black" stroke="black" points="1450.26,-260.2 1456.45,-251.6 1446.25,-254.47 1450.26,-260.2"/>
</g>
<!-- glib&#45;&gt;libz -->
<g id="edge31" class="edge">
<title>glib&#45;&gt;libz</title>
<path fill="none" stroke="black" d="M1382.16,-215.66C1390.43,-183.7 1410.29,-114.88 1378.16,-72 1361.68,-50 1288.97,-34.06 1243.41,-25.7"/>
<polygon fill="black" stroke="black" points="1244.14,-22.27 1233.68,-23.95 1242.9,-29.16 1244.14,-22.27"/>
</g>
<!-- glib&#45;&gt;libz -->
<g id="edge52" class="edge">
<title>glib&#45;&gt;libz</title>
<path fill="none" stroke="black" d="M1391.76,-217.37C1407.69,-186.22 1428.87,-115.66 1396.16,-72 1378.27,-48.11 1294.07,-31.37 1243.83,-23.71"/>
<polygon fill="black" stroke="black" points="1244.65,-20.29 1234.25,-22.31 1243.64,-27.22 1244.65,-20.29"/>
</g>
<!-- libpcre2 -->
<g id="node25" class="node">
<title>libpcre2</title>
<ellipse fill="none" stroke="black" cx="1493.16" cy="-162" rx="41.12" ry="18"/>
<text text-anchor="middle" x="1493.16" y="-156.95" font-family="Times,serif" font-size="14.00">libpcre2</text>
</g>
<!-- glib&#45;&gt;libpcre2 -->
<g id="edge32" class="edge">
<title>glib&#45;&gt;libpcre2</title>
<path fill="none" stroke="black" d="M1396.49,-219.5C1412.33,-208.76 1436.59,-193.61 1456.92,-181.7"/>
<polygon fill="black" stroke="black" points="1458.6,-184.77 1465.51,-176.74 1455.1,-178.71 1458.6,-184.77"/>
</g>
<!-- glib&#45;&gt;libpcre2 -->
<g id="edge53" class="edge">
<title>glib&#45;&gt;libpcre2</title>
<path fill="none" stroke="black" d="M1401.79,-222.67C1419.69,-212.7 1445.02,-197.28 1464.55,-184.62"/>
<polygon fill="black" stroke="black" points="1466.48,-187.54 1472.9,-179.12 1462.63,-181.7 1466.48,-187.54"/>
</g>
<!-- libintl -->
<g id="node26" class="node">
<title>libintl</title>
<ellipse fill="none" stroke="black" cx="1345.16" cy="-162" rx="32.93" ry="18"/>
<text text-anchor="middle" x="1345.16" y="-156.95" font-family="Times,serif" font-size="14.00">libintl</text>
</g>
<!-- glib&#45;&gt;libintl -->
<g id="edge33" class="edge">
<title>glib&#45;&gt;libintl</title>
<path fill="none" stroke="black" d="M1366.89,-217.81C1361.93,-209.83 1356.61,-199.81 1352.31,-190.52"/>
<polygon fill="black" stroke="black" points="1355.6,-189.31 1348.43,-181.52 1349.17,-192.08 1355.6,-189.31"/>
</g>
<!-- glib&#45;&gt;libintl -->
<g id="edge54" class="edge">
<title>glib&#45;&gt;libintl</title>
<path fill="none" stroke="black" d="M1377.43,-215.7C1374.16,-207.46 1369.35,-197.45 1364.37,-188.37"/>
<polygon fill="black" stroke="black" points="1367.54,-186.87 1359.49,-179.98 1361.49,-190.39 1367.54,-186.87"/>
</g>
<!-- libffi -->
<g id="node27" class="node">
<title>libffi</title>
<ellipse fill="none" stroke="black" cx="1581.16" cy="-162" rx="29.34" ry="18"/>
<text text-anchor="middle" x="1581.16" y="-156.95" font-family="Times,serif" font-size="14.00">libffi</text>
</g>
<!-- glib&#45;&gt;libffi -->
<g id="edge34" class="edge">
<title>glib&#45;&gt;libffi</title>
<path fill="none" stroke="black" d="M1397.75,-219.88C1400.85,-218.49 1404.06,-217.16 1407.16,-216 1462.1,-195.4 1479.02,-200.03 1534.16,-180 1537.74,-178.7 1541.44,-177.22 1545.16,-175.68"/>
<polygon fill="black" stroke="black" points="1546.29,-179.01 1554.15,-171.91 1543.57,-172.55 1546.29,-179.01"/>
</g>
<!-- glib&#45;&gt;libffi -->
<g id="edge55" class="edge">
<title>glib&#45;&gt;libffi</title>
<path fill="none" stroke="black" d="M1404.05,-224.98C1410.95,-221.93 1418.3,-218.57 1425.16,-216 1476.99,-196.57 1494.98,-199.59 1551.46,-179.89"/>
<polygon fill="black" stroke="black" points="1552.41,-183.27 1560.64,-176.6 1550.05,-176.68 1552.41,-183.27"/>
</g>
<!-- libfreetype&#45;&gt;libbrotli -->
<g id="edge27" class="edge">
<title>libfreetype&#45;&gt;libbrotli</title>
<path fill="none" stroke="black" d="M1024.26,-143.7C1023.09,-136.41 1022.35,-127.73 1022.15,-119.54"/>
<polygon fill="black" stroke="black" points="1025.65,-119.65 1022.23,-109.62 1018.65,-119.59 1025.65,-119.65"/>
</g>
<!-- libfreetype&#45;&gt;libbrotli -->
<g id="edge48" class="edge">
<title>libfreetype&#45;&gt;libbrotli</title>
<path fill="none" stroke="black" d="M1036.09,-143.7C1036.43,-136.32 1036.17,-127.52 1035.41,-119.25"/>
<polygon fill="black" stroke="black" points="1038.92,-119.1 1034.22,-109.61 1031.98,-119.96 1038.92,-119.1"/>
</g>
<!-- libfreetype&#45;&gt;libbz2 -->
<g id="edge28" class="edge">
<title>libfreetype&#45;&gt;libbz2</title>
<path fill="none" stroke="black" d="M1046.41,-144.41C1058.21,-134.26 1074.69,-121.23 1089.14,-110.57"/>
<polygon fill="black" stroke="black" points="1091,-113.55 1097.06,-104.86 1086.9,-107.88 1091,-113.55"/>
</g>
<!-- libfreetype&#45;&gt;libbz2 -->
<g id="edge49" class="edge">
<title>libfreetype&#45;&gt;libbz2</title>
<path fill="none" stroke="black" d="M1055.67,-146.15C1068.66,-136.85 1084.4,-124.67 1097.15,-114.12"/>
<polygon fill="black" stroke="black" points="1099.29,-116.9 1104.67,-107.77 1094.77,-111.55 1099.29,-116.9"/>
</g>
<!-- libfreetype&#45;&gt;libpng -->
<g id="edge29" class="edge">
<title>libfreetype&#45;&gt;libpng</title>
<path fill="none" stroke="black" d="M1060.63,-147C1089.98,-134.6 1134.97,-116.61 1167.23,-104.4"/>
<polygon fill="black" stroke="black" points="1168.09,-107.81 1176.22,-101.02 1165.63,-101.26 1168.09,-107.81"/>
</g>
<!-- libfreetype&#45;&gt;libpng -->
<g id="edge50" class="edge">
<title>libfreetype&#45;&gt;libpng</title>
<path fill="none" stroke="black" d="M1066.91,-148.81C1097.38,-137.33 1140.75,-120.06 1171.03,-107.38"/>
<polygon fill="black" stroke="black" points="1172.3,-110.64 1180.15,-103.53 1169.58,-104.19 1172.3,-110.64"/>
</g>
<!-- libpng&#45;&gt;libz -->
<g id="edge30" class="edge">
<title>libpng&#45;&gt;libz</title>
<path fill="none" stroke="black" d="M1189.25,-74.15C1185.88,-65.17 1185.06,-53.51 1186.79,-43.22"/>
<polygon fill="black" stroke="black" points="1190.09,-44.43 1189.42,-33.86 1183.35,-42.54 1190.09,-44.43"/>
</g>
<!-- libpng&#45;&gt;libz -->
<g id="edge42" class="edge">
<title>libpng&#45;&gt;libz</title>
<path fill="none" stroke="black" d="M1200.28,-72.05C1199.49,-64.57 1199.24,-55.58 1199.53,-47.14"/>
<polygon fill="black" stroke="black" points="1203.01,-47.51 1200.2,-37.3 1196.03,-47.04 1203.01,-47.51"/>
</g>
<!-- libpng&#45;&gt;libz -->
<g id="edge51" class="edge">
<title>libpng&#45;&gt;libz</title>
<path fill="none" stroke="black" d="M1212.04,-72.05C1212.83,-64.57 1213.09,-55.58 1212.8,-47.14"/>
<polygon fill="black" stroke="black" points="1216.3,-47.04 1212.13,-37.3 1209.31,-47.51 1216.3,-47.04"/>
</g>
<!-- libpng&#45;&gt;libz -->
<g id="edge67" class="edge">
<title>libpng&#45;&gt;libz</title>
<path fill="none" stroke="black" d="M1223.07,-74.15C1226.44,-65.17 1227.26,-53.51 1225.53,-43.22"/>
<polygon fill="black" stroke="black" points="1228.98,-42.54 1222.91,-33.86 1222.24,-44.43 1228.98,-42.54"/>
</g>
<!-- libintl&#45;&gt;libiconv -->
<g id="edge35" class="edge">
<title>libintl&#45;&gt;libiconv</title>
<path fill="none" stroke="black" d="M1337.35,-144.05C1335.72,-136.68 1334.46,-127.84 1333.78,-119.51"/>
<polygon fill="black" stroke="black" points="1337.28,-119.6 1333.3,-109.79 1330.29,-119.95 1337.28,-119.6"/>
</g>
<!-- libintl&#45;&gt;libiconv -->
<g id="edge56" class="edge">
<title>libintl&#45;&gt;libiconv</title>
<path fill="none" stroke="black" d="M1349.1,-143.7C1349.02,-136.32 1348.25,-127.52 1347.03,-119.25"/>
<polygon fill="black" stroke="black" points="1350.51,-118.81 1345.28,-109.59 1343.62,-120.06 1350.51,-118.81"/>
</g>
<!-- libfontconfig&#45;&gt;libiconv -->
<g id="edge45" class="edge">
<title>libfontconfig&#45;&gt;libiconv</title>
<path fill="none" stroke="black" d="M989.09,-221.71C1025.65,-211.91 1078.85,-196.7 1124.16,-180 1161.13,-166.38 1168.88,-159.34 1205.16,-144 1235.61,-131.13 1270.31,-117.22 1296.49,-106.89"/>
<polygon fill="black" stroke="black" points="1297.72,-110.16 1305.74,-103.24 1295.16,-103.65 1297.72,-110.16"/>
</g>
<!-- libfontconfig&#45;&gt;libexpat -->
<g id="edge46" class="edge">
<title>libfontconfig&#45;&gt;libexpat</title>
<path fill="none" stroke="black" d="M943.08,-215.59C940.21,-191.61 935,-148.14 931.56,-119.42"/>
<polygon fill="black" stroke="black" points="935.05,-119.13 930.39,-109.61 928.1,-119.96 935.05,-119.13"/>
</g>
<!-- libfontconfig&#45;&gt;libfreetype -->
<g id="edge47" class="edge">
<title>libfontconfig&#45;&gt;libfreetype</title>
<path fill="none" stroke="black" d="M965.11,-216.76C976.37,-207.6 990.62,-196 1003,-185.92"/>
<polygon fill="black" stroke="black" points="1004.9,-188.89 1010.45,-179.86 1000.48,-183.46 1004.9,-188.89"/>
</g>
<!-- libxml2&#45;&gt;libz -->
<g id="edge43" class="edge">
<title>libxml2&#45;&gt;libz</title>
<path fill="none" stroke="black" d="M1256.26,-143.61C1257.8,-125.18 1258.26,-95.53 1249.16,-72 1244.85,-60.84 1237.25,-50.25 1229.63,-41.5"/>
<polygon fill="black" stroke="black" points="1232.23,-39.15 1222.85,-34.22 1227.11,-43.92 1232.23,-39.15"/>
</g>
<!-- libxml2&#45;&gt;libiconv -->
<g id="edge44" class="edge">
<title>libxml2&#45;&gt;libiconv</title>
<path fill="none" stroke="black" d="M1272.17,-145.81C1283.3,-136.43 1297.78,-124.21 1310.25,-113.69"/>
<polygon fill="black" stroke="black" points="1312.36,-116.5 1317.74,-107.38 1307.84,-111.15 1312.36,-116.5"/>
</g>
<!-- libtiff&#45;&gt;libzstd -->
<g id="edge64" class="edge">
<title>libtiff&#45;&gt;libzstd</title>
<path fill="none" stroke="black" d="M240.55,-149.83C245.94,-147.66 251.68,-145.57 257.16,-144 350.29,-117.27 378.62,-133.24 472.16,-108 474.59,-107.35 477.06,-106.61 479.54,-105.82"/>
<polygon fill="black" stroke="black" points="480.57,-109.17 488.88,-102.61 478.29,-102.55 480.57,-109.17"/>
</g>
<!-- libtiff&#45;&gt;libz -->
<g id="edge65" class="edge">
<title>libtiff&#45;&gt;libz</title>
<path fill="none" stroke="black" d="M211.39,-143.88C206.92,-123.67 203.42,-90.49 222.16,-72 256.39,-38.23 989.49,-22.9 1167.48,-19.66"/>
<polygon fill="black" stroke="black" points="1167.41,-23.17 1177.34,-19.49 1167.28,-16.17 1167.41,-23.17"/>
</g>
<!-- libtiff&#45;&gt;liblzma -->
<g id="edge66" class="edge">
<title>libtiff&#45;&gt;liblzma</title>
<path fill="none" stroke="black" d="M240.74,-150.41C246.12,-148.2 251.81,-145.96 257.16,-144 298.62,-128.86 346.73,-113.85 380.63,-103.7"/>
<polygon fill="black" stroke="black" points="381.52,-107.08 390.11,-100.88 379.52,-100.38 381.52,-107.08"/>
</g>
</g>
</svg>
